<svg width="540" height="540" viewBox="0 0 540 540" fill="none" xmlns="http://www.w3.org/2000/svg">
<g clip-path="url(#clip0)">
<path d="M54.2813 82.6056C78.6647 52.8052 117.461 38.8798 158.43 52.9445C209.954 70.6994 224.506 117.517 246.299 162.175C263.65 197.713 297.823 230.744 340.268 213.7C373.522 200.275 392.363 161.465 396.512 127.71C397.613 118.728 398.518 109.412 403.03 101.586C420.701 70.9501 466.822 71.7717 486.262 99.0933C521.075 148.055 508.891 230.73 486.916 282.185C466.028 331.202 425.644 367.213 375.75 385.233C348.261 395.148 319.059 399.771 289.941 401.066C184.93 405.745 66.1179 364.971 35.106 253.331C23.2972 210.901 20.5957 161.34 34.6743 118.756C38.9394 105.606 45.5855 93.3524 54.2813 82.6056Z" fill="#D6EBF5"/>
<path opacity="0.16" d="M270 528.442C419.117 528.442 540 521.384 540 512.678C540 503.972 419.117 496.915 270 496.915C120.883 496.915 0 503.972 0 512.678C0 521.384 120.883 528.442 270 528.442Z" fill="#263238"/>
<path d="M306.512 125.788C317.549 135.445 331.501 141.127 346.144 141.928C334.89 136.858 325.291 128.722 318.447 118.45C333.361 107.198 342.719 91.0444 342.719 73.1085C342.719 39.1166 309.158 11.5581 267.758 11.5581C226.358 11.5581 192.797 39.1166 192.797 73.1085C192.797 91.0444 202.169 107.198 217.083 118.45C210.237 128.725 200.632 136.863 189.372 141.928C204.019 141.127 217.976 135.445 229.017 125.788C241.101 131.622 254.347 134.652 267.765 134.652C281.183 134.652 294.429 131.622 306.512 125.788Z" fill="#3399CC"/>
<path opacity="0.4" d="M306.512 125.788C317.549 135.445 331.501 141.127 346.144 141.928C334.89 136.858 325.291 128.722 318.447 118.45C333.361 107.198 342.719 91.0444 342.719 73.1085C342.719 39.1166 309.158 11.5581 267.758 11.5581C226.358 11.5581 192.797 39.1166 192.797 73.1085C192.797 91.0444 202.169 107.198 217.083 118.45C210.237 128.725 200.632 136.863 189.372 141.928C204.019 141.127 217.976 135.445 229.017 125.788C241.101 131.622 254.347 134.652 267.765 134.652C281.183 134.652 294.429 131.622 306.512 125.788Z" fill="white"/>
<path d="M267.729 110.979C282.69 105.628 289.426 86.215 282.775 67.6187C276.124 49.0224 258.604 38.2849 243.643 43.6358C228.682 48.9868 221.945 68.3999 228.596 86.9962C235.248 105.593 252.768 116.33 267.729 110.979Z" fill="#3399CC"/>
<path d="M267.523 103.736C279.602 99.4161 285.042 83.7445 279.672 68.7327C274.303 53.7209 260.159 45.0537 248.08 49.3738C236.001 53.6939 230.562 69.3655 235.931 84.3773C241.3 99.389 255.444 108.056 267.523 103.736Z" fill="white"/>
<path d="M267.426 97.6435C277.101 94.1832 281.459 81.6332 277.159 69.6122C272.86 57.5912 261.531 50.6514 251.857 54.1116C242.182 57.5718 237.824 70.1219 242.124 82.1429C246.423 94.1638 257.752 101.104 267.426 97.6435Z" fill="#3399CC"/>
<path d="M273.871 70.7969C277.172 80.0295 274.066 89.5823 266.909 92.1306C259.751 94.679 251.312 89.3456 248.012 80.0434C244.711 70.7412 247.817 61.258 254.975 58.7096C262.132 56.1613 270.571 61.5643 273.871 70.7969Z" fill="white"/>
<path d="M271.393 72.3008C273.746 78.8875 271.713 85.6274 266.853 87.3681C261.993 89.1088 256.13 85.1818 253.777 78.609C251.424 72.0362 253.457 65.2685 258.331 63.5278C263.204 61.7871 269.081 65.6584 271.393 72.3008Z" fill="#3399CC"/>
<path d="M269.735 72.8439C271.434 77.5925 270.139 82.4107 266.853 83.5804C263.566 84.7502 259.5 81.8676 257.801 77.1051C256.102 72.3426 257.397 67.5523 260.684 66.3686C263.97 65.1849 268.037 68.1232 269.735 72.8439Z" fill="white"/>
<path d="M308.991 51.357L300.135 54.532L298.436 62.5809L304.855 67.7194L313.712 64.5583L307.139 59.4616L308.991 51.357Z" fill="#3399CC"/>
<path d="M265.154 75.8797C264.852 75.8964 264.553 75.8145 264.302 75.6461C264.05 75.4778 263.861 75.2323 263.761 74.9467C263.641 74.5994 263.663 74.2187 263.822 73.8874C263.981 73.5561 264.265 73.3012 264.611 73.1781L307.961 57.6652C308.31 57.5415 308.694 57.5615 309.028 57.7208C309.362 57.8801 309.619 58.1656 309.743 58.5147C309.867 58.8637 309.847 59.2475 309.688 59.5818C309.528 59.9161 309.243 60.1734 308.894 60.2971L265.544 75.7961C265.419 75.8425 265.287 75.8707 265.154 75.8797Z" fill="#263238"/>
<path d="M306.499 199.872L304.326 194.58C304.326 194.58 306.053 192.923 305.83 191.586C305.607 190.249 296.625 182.841 294.968 181.574C293.311 180.306 290.624 184.971 289.579 188.689C288.535 192.408 297.934 198.925 299.327 198.298L300.831 203.562L306.499 199.872Z" fill="#EBB376"/>
<path d="M361.128 198.897C344.571 200.916 326.119 225.272 320.744 222.166C315.369 219.061 305.426 196.711 305.426 196.711L299.731 200.08C299.731 200.08 304.911 241.105 317.583 242.664C330.255 244.224 353.706 231.051 353.706 231.051L361.128 198.897Z" fill="#263238"/>
<path opacity="0.2" d="M361.128 198.911L356.226 220.161L353.706 231.023C346.779 234.832 339.523 238.006 332.024 240.506C326.872 242.121 321.677 243.152 317.611 242.651C304.953 241.105 299.773 200.08 299.773 200.08L305.454 196.711C305.454 196.711 315.341 218.991 320.772 222.166C326.203 225.341 344.585 200.93 361.128 198.911Z" fill="white"/>
<path opacity="0.2" d="M356.226 220.161L353.706 231.023C346.779 234.832 339.523 238.006 332.024 240.506C334.614 226.469 350.573 221.498 356.226 220.161Z" fill="black"/>
<path d="M402.682 507.721H414.922C415.12 507.72 415.313 507.787 415.468 507.911C415.623 508.035 415.73 508.209 415.771 508.403L417.763 517.385C417.841 517.769 417.766 518.168 417.552 518.497C417.338 518.825 417.004 519.056 416.621 519.14C416.51 519.153 416.398 519.153 416.287 519.14C412.332 519.14 409.449 518.833 404.464 518.833C401.4 518.833 392.168 519.154 387.935 519.154C383.701 519.154 383.158 514.976 384.885 514.6C392.655 512.901 398.504 510.562 400.983 508.334C401.447 507.916 402.057 507.696 402.682 507.721Z" fill="#263238"/>
<path d="M340.504 507.721H352.745C352.945 507.719 353.14 507.786 353.297 507.91C353.454 508.034 353.564 508.208 353.608 508.403L355.586 517.385C355.628 517.575 355.633 517.772 355.598 517.964C355.564 518.156 355.491 518.34 355.385 518.503C355.278 518.667 355.14 518.807 354.979 518.917C354.817 519.026 354.635 519.102 354.444 519.14C354.337 519.153 354.23 519.153 354.124 519.14C350.155 519.14 347.272 518.833 342.301 518.833C339.237 518.833 329.991 519.154 325.771 519.154C321.552 519.154 320.981 514.976 322.722 514.6C330.478 512.901 336.327 510.562 338.819 508.334C339.279 507.916 339.884 507.696 340.504 507.721Z" fill="#263238"/>
<path d="M413.028 287.992C416.271 321.674 415.025 355.638 409.324 388.993C409.324 388.993 418.529 466.321 415.771 508.459H400.983C400.983 508.459 376.349 423.138 373.41 398.281C370.472 373.424 366.28 336.591 366.28 336.591C366.28 336.591 358.747 371.488 346.339 398.281C346.339 398.281 356.936 423.542 355.627 510.868L336.981 509.322C336.981 509.322 323.655 427.886 317.124 398.309C310.593 368.731 323.251 311.526 333.737 281.099L413.028 287.992Z" fill="#263238"/>
<path opacity="0.4" d="M413.028 287.992C416.271 321.674 415.025 355.638 409.324 388.993C409.324 388.993 418.529 466.321 415.771 508.459H400.983C400.983 508.459 376.349 423.138 373.41 398.281C370.472 373.424 366.28 336.591 366.28 336.591C366.28 336.591 358.747 371.488 346.339 398.281C346.339 398.281 356.936 423.542 355.627 510.868L336.981 509.322C336.981 509.322 323.655 427.886 317.124 398.309C310.593 368.731 323.251 311.526 333.737 281.099L413.028 287.992Z" fill="white"/>
<path d="M350.085 290.582L379.983 294.342L380.902 287.588L350.962 284.148L350.085 290.582Z" fill="#263238"/>
<path d="M383.186 287.852L382.253 294.634L413.153 297.823L412.861 291.25L383.186 287.852Z" fill="#263238"/>
<path d="M348.693 283.898L334.266 282.24L332.929 288.409L347.815 290.289L348.693 283.898Z" fill="#263238"/>
<path d="M366.837 293.144L357.438 292.072C357.288 292.06 357.141 292.018 357.007 291.949C356.874 291.88 356.755 291.785 356.658 291.67C356.561 291.554 356.487 291.421 356.442 291.277C356.396 291.134 356.38 290.982 356.393 290.832L357.173 285.179C357.2 285.023 357.257 284.875 357.342 284.742C357.427 284.609 357.538 284.495 357.667 284.405C357.797 284.316 357.943 284.253 358.098 284.221C358.252 284.189 358.411 284.188 358.566 284.218L367.979 285.29C368.129 285.302 368.275 285.344 368.408 285.413C368.541 285.483 368.659 285.578 368.755 285.693C368.851 285.809 368.923 285.942 368.967 286.086C369.01 286.229 369.025 286.38 369.01 286.529L368.23 292.183C368.205 292.339 368.149 292.489 368.064 292.623C367.98 292.756 367.869 292.872 367.739 292.961C367.609 293.051 367.462 293.114 367.307 293.145C367.152 293.177 366.992 293.176 366.837 293.144Z" fill="white"/>
<path d="M333.737 281.043C333.737 281.043 324.95 265.126 343.484 237.874C343.484 237.874 348.874 208.422 353.372 203.771C357.869 199.12 371.697 192.937 391.43 196.488C411.162 200.039 419.42 208.046 419.42 208.046L416.245 270.279C416.245 270.279 417.999 278.132 413.543 289.941L333.737 281.043Z" fill="#263238"/>
<path d="M403.851 198.674C396.345 202.406 378.716 203.52 378.716 203.52L368.968 197.337C373.828 196.892 376.878 195.945 378.716 194.552C381.64 192.366 381.417 189.316 380.484 186.336C380.484 186.336 380.484 186.336 380.484 186.239L393.908 180.78L403.155 177.02C400.161 183.036 396.512 194.246 403.851 198.674Z" fill="#EBB376"/>
<path opacity="0.2" d="M399.353 182.186C397.794 191.308 385.999 194.496 378.716 194.496C381.64 192.31 381.417 189.26 380.484 186.28C380.498 186.245 380.498 186.205 380.484 186.169L393.908 180.71C394.187 181.824 399.506 181.044 399.353 182.186Z" fill="black"/>
<path d="M404.004 159.307C403.416 157.552 402.488 155.931 401.274 154.536C400.059 153.14 398.581 151.998 396.924 151.174C395.267 150.35 393.464 149.861 391.618 149.734C389.772 149.608 387.92 149.846 386.166 150.436C384.087 151.122 382.211 152.313 380.707 153.904C377.017 155.839 374.747 161.939 375.137 166.047C374.979 166.91 374.854 167.773 374.761 168.637C373.884 170.976 370.36 173.358 372.254 180.515C374.608 189.414 384.147 191.725 390.204 190.263C392.89 189.936 395.409 188.788 397.418 186.977C398.03 186.434 398.603 185.848 399.13 185.222C403.071 180.627 403.433 174.848 404.603 165.796C404.913 163.616 404.708 161.393 404.004 159.307Z" fill="#EBB376"/>
<path d="M388.784 167.634C388.784 168.47 388.241 169.11 387.684 169.027C387.127 168.943 386.751 168.275 386.793 167.439C386.834 166.604 387.35 165.963 387.893 166.047C388.436 166.13 388.84 166.785 388.784 167.634Z" fill="#263238"/>
<path d="M379.315 166.994C379.315 167.829 378.758 168.484 378.214 168.386C377.671 168.289 377.281 167.634 377.337 166.799C377.393 165.963 377.894 165.309 378.437 165.406C378.98 165.504 379.37 166.172 379.315 166.994Z" fill="#263238"/>
<path d="M382.295 167.592C381.123 170.084 379.609 172.399 377.797 174.472C378.342 174.925 378.98 175.252 379.666 175.43C380.352 175.608 381.069 175.633 381.765 175.502L382.295 167.592Z" fill="#D58745"/>
<path d="M392.196 164.417C392.107 164.438 392.015 164.436 391.927 164.412C391.84 164.387 391.76 164.342 391.694 164.278C391.275 163.824 390.757 163.473 390.179 163.253C389.602 163.034 388.981 162.951 388.366 163.011C388.239 163.035 388.107 163.007 388 162.934C387.893 162.861 387.819 162.749 387.795 162.621C387.771 162.494 387.799 162.362 387.872 162.255C387.945 162.148 388.058 162.074 388.185 162.05C388.954 161.957 389.734 162.049 390.461 162.318C391.187 162.587 391.839 163.025 392.363 163.596C392.409 163.641 392.446 163.695 392.471 163.755C392.496 163.815 392.509 163.879 392.509 163.944C392.509 164.009 392.496 164.073 392.471 164.133C392.446 164.193 392.409 164.247 392.363 164.292C392.315 164.344 392.258 164.386 392.196 164.417Z" fill="#263238"/>
<path d="M375.833 164.055C375.733 164.051 375.636 164.017 375.555 163.958C375.508 163.913 375.472 163.858 375.447 163.799C375.421 163.739 375.409 163.675 375.409 163.61C375.409 163.545 375.421 163.481 375.447 163.421C375.472 163.361 375.508 163.307 375.555 163.262C376.123 162.721 376.814 162.326 377.568 162.11C378.322 161.894 379.117 161.864 379.886 162.022C379.948 162.039 380.006 162.067 380.058 162.106C380.109 162.145 380.152 162.193 380.184 162.249C380.217 162.305 380.238 162.366 380.246 162.43C380.255 162.494 380.25 162.559 380.234 162.621C380.198 162.745 380.116 162.85 380.004 162.915C379.893 162.98 379.76 162.999 379.635 162.969C379.025 162.864 378.4 162.903 377.807 163.082C377.215 163.26 376.673 163.575 376.223 164C376.166 164.036 376.101 164.059 376.034 164.069C375.967 164.078 375.899 164.074 375.833 164.055Z" fill="#263238"/>
<path d="M380.178 154.029C384.676 151.996 384.982 155.422 384.982 155.422C384.982 155.422 387.893 152.024 391.026 152.553C394.159 153.082 398.671 159.084 398.935 159.864C399.2 160.644 397.696 162.175 397.696 162.175C397.696 162.175 398.044 171.645 398.156 174.263L402.027 181.337C406.355 174.573 408.686 166.724 408.753 158.694C408.878 145.2 382.295 145.855 382.295 145.855L380.178 154.029Z" fill="#263238"/>
<path d="M408.433 177.507C407.674 178.545 406.717 179.423 405.618 180.09C404.519 180.757 403.298 181.199 402.027 181.393C398.629 181.894 397.362 178.747 398.657 175.753C399.841 173.107 403.03 169.57 406.274 170.461C409.519 171.352 410.285 174.917 408.433 177.507Z" fill="#EBB376"/>
<path d="M382.169 178.524C382.974 179.975 383.672 181.483 384.258 183.036L385.108 182.855C388.993 182.033 390.511 180.362 391.026 178.775C391.387 177.534 391.293 176.206 390.761 175.029C388.965 176.7 385.414 177.744 383.492 178.218C382.685 178.426 382.169 178.524 382.169 178.524Z" fill="#263238"/>
<path d="M383.492 178.218L384.133 179.54C387.795 178.747 390.246 177.702 391.165 176.352C391.089 175.895 390.953 175.45 390.761 175.029C388.965 176.741 385.414 177.744 383.492 178.218Z" fill="white"/>
<path d="M385.108 182.855C388.993 182.033 390.511 180.362 391.026 178.775C389.54 179.113 388.125 179.712 386.848 180.543C386.044 181.116 385.436 181.924 385.108 182.855Z" fill="#DE5753"/>
<path d="M382.295 145.911C375.137 147.08 373.939 156.898 379.329 157.817C384.718 158.736 380.234 155.338 380.234 155.338C380.234 155.338 389.633 158.443 391.249 157.984C392.864 157.524 390.706 155.338 390.706 155.338C390.706 155.338 396.888 159.78 401.999 158.026C407.11 156.271 403.127 142.527 382.295 145.911Z" fill="#263238"/>
<path d="M374.301 200.93L375.708 208.213L365.347 233.432L368.119 242.943L373.8 237.972L377.198 209.243L385.665 203.98L383.785 200.93L377.602 199.537L374.301 200.93Z" fill="#3399CC"/>
<path d="M376.181 192.784L381.069 198.883L401.428 192.366L405.954 200.429L383.283 211.235L379.579 201.877L368.885 208.032L367.993 196.711L376.181 192.784Z" fill="#263238"/>
<path opacity="0.2" d="M418.361 216.29C417.707 222.333 416.844 231.608 416.273 243.876C413.367 236.811 412.815 228.998 414.699 221.595C415.574 219.611 416.816 217.811 418.361 216.29Z" fill="black"/>
<path d="M400.119 262.926L394.702 264.179C394.702 264.179 393.435 262.132 392.126 262.118C390.817 262.104 382.155 269.93 380.665 271.379C379.175 272.827 383.102 276.406 386.458 278.146C389.814 279.887 397.682 271.448 397.334 269.958L402.612 269.373L400.119 262.926Z" fill="#EBB376"/>
<path d="M419.462 208.018C428.792 213.463 444.764 247.218 440.35 259.96C437.189 269.123 406.205 273.662 398.81 270.251L396.554 263.399C396.554 263.399 420.715 255.754 421.982 251.075C422.985 247.357 413.557 238.543 413.557 238.543C413.557 238.543 411.789 232.137 414.95 217.028C416.37 210.692 419.462 208.018 419.462 208.018Z" fill="#263238"/>
<path opacity="0.2" d="M419.462 208.018C428.792 213.463 444.764 247.218 440.35 259.96C437.189 269.123 406.205 273.662 398.81 270.251L396.554 263.399C396.554 263.399 420.715 255.754 421.982 251.075C422.985 247.357 413.557 238.543 413.557 238.543C413.557 238.543 411.789 232.137 414.95 217.028C416.37 210.692 419.462 208.018 419.462 208.018Z" fill="white"/>
<path opacity="0.2" d="M376.181 192.784L381.069 198.883L401.428 192.366L405.954 200.429L383.283 211.235L379.579 201.877L368.885 208.032L367.993 196.711L376.181 192.784Z" fill="white"/>
<path d="M207.336 186.03C206.625 184.442 207.336 180.237 207.336 180.237C207.336 180.237 219.158 174.026 221.052 172.522C222.946 171.018 225.077 177.842 223.837 179.276C222.598 180.71 219.103 186.03 213.198 186.03L211.513 190.667L207.336 186.03Z" fill="#E4897B"/>
<path d="M175.307 191.224C179.777 192.296 192.658 209.327 197.045 208.854C201.431 208.38 206.695 185.528 206.695 185.528L213.129 187.464C213.129 187.464 209.912 216.192 201.724 220.05C193.535 223.907 173.873 207.517 173.873 207.517L175.307 191.224Z" fill="#3399CC"/>
<path opacity="0.4" d="M175.307 191.224C179.777 192.296 192.658 209.327 197.045 208.854C201.431 208.38 206.695 185.528 206.695 185.528L213.129 187.464C213.129 187.464 209.912 216.192 201.724 220.05C193.535 223.907 173.873 207.517 173.873 207.517L175.307 191.224Z" fill="white"/>
<path opacity="0.2" d="M175.307 208.77C178.984 211.65 182.86 214.265 186.907 216.596C186.313 213.758 185.107 211.085 183.372 208.761C181.638 206.438 179.418 204.521 176.867 203.144L175.307 208.77Z" fill="black"/>
<path d="M132.138 502.596H119.41C119.202 502.598 119 502.67 118.838 502.802C118.676 502.934 118.564 503.117 118.519 503.32L116.458 512.651C116.415 512.849 116.412 513.054 116.448 513.254C116.484 513.453 116.559 513.644 116.669 513.815C116.779 513.985 116.922 514.133 117.089 514.248C117.255 514.364 117.444 514.446 117.642 514.489H117.99C122.168 514.419 125.106 514.168 130.272 514.168C133.461 514.168 143.07 514.503 147.47 514.503C151.871 514.503 152.442 510.158 150.645 509.754C142.568 507.999 136.483 505.576 133.935 503.237C133.442 502.798 132.798 502.568 132.138 502.596Z" fill="#263238"/>
<path d="M186.113 502.262H173.385C173.177 502.264 172.975 502.336 172.813 502.468C172.651 502.599 172.538 502.782 172.494 502.986L170.433 512.344C170.39 512.543 170.387 512.747 170.423 512.947C170.459 513.147 170.534 513.338 170.644 513.508C170.754 513.679 170.897 513.826 171.064 513.942C171.23 514.058 171.418 514.139 171.617 514.182H171.965C176.143 514.113 179.081 513.862 184.247 513.862C187.436 513.862 197.045 514.196 201.445 514.196C205.846 514.196 206.417 509.851 204.62 509.448C196.543 507.693 190.458 505.27 187.91 502.931C187.418 502.486 186.775 502.247 186.113 502.262Z" fill="#263238"/>
<path d="M125.385 266.616H181.003C186.28 295.497 202.838 412.749 190.959 503.808H172.132C172.132 503.808 173.915 365.528 157.204 320.842C155.338 344.752 135.898 503.71 135.898 503.71H116.737C116.737 503.71 119.592 443.915 122.46 387.433C124.271 351.868 125.301 273.913 125.385 266.616Z" fill="#263238"/>
<path opacity="0.3" d="M157.204 320.842C159.937 328.677 162.015 336.726 163.415 344.905C164.974 323.627 158.75 301.054 158.75 301.054L157.204 320.842Z" fill="black"/>
<path d="M181.462 267.285H125.482V273.941L182.186 273.259L181.462 267.285Z" fill="black"/>
<path d="M143.474 276.113H145.479V264.277H143.474V276.113Z" fill="#263238"/>
<path d="M171.798 276.113H173.803V264.277H171.798V276.113Z" fill="#263238"/>
<path d="M155.937 273.579H166.297V266.115H155.937V273.579Z" fill="white"/>
<path opacity="0.3" d="M135.815 275.194H126.164L126.053 277.422L125.482 277.339C123.337 298.784 129.882 304.145 129.882 304.145C126.986 301.123 126.234 288.827 126.234 288.827C128.967 287.709 131.323 285.83 133.021 283.414C134.719 280.997 135.688 278.145 135.815 275.194Z" fill="black"/>
<path d="M125.969 269.847L132.027 277.826C132.027 277.826 132.946 276.851 134.812 279.581C133.361 283.327 130.552 286.39 126.944 288.159L127.724 282.115L121.485 273.941L125.969 269.847Z" fill="#E4897B"/>
<path d="M119.745 197.435C114.578 196.474 97.0045 240.506 100.514 249.571C104.023 258.637 123.783 280.207 123.783 280.207L129.882 274.498C129.882 274.498 113.659 252.872 111.32 245.756C108.98 238.64 121.931 216.067 121.931 216.067C122.877 212.557 123.234 208.915 122.989 205.289C122.717 202.405 121.587 199.67 119.745 197.435Z" fill="#3399CC"/>
<path opacity="0.4" d="M119.745 197.435C114.578 196.474 97.0045 240.506 100.514 249.571C104.023 258.637 123.783 280.207 123.783 280.207L129.882 274.498C129.882 274.498 113.659 252.872 111.32 245.756C108.98 238.64 121.931 216.067 121.931 216.067C122.877 212.557 123.234 208.915 122.989 205.289C122.717 202.405 121.587 199.67 119.745 197.435Z" fill="white"/>
<path d="M182.339 246.369C182.339 247.288 182.339 248.193 182.339 249.07C182.339 250.992 182.27 252.802 182.228 254.459C182.131 256.785 182.033 258.846 181.936 260.614C181.671 264.792 181.393 267.285 181.393 267.285H124.758C124.619 265.238 124.479 263.19 124.354 261.157C124.229 259.124 124.103 257.398 123.978 255.587C123.853 253.777 123.755 252.287 123.644 250.658C123.574 249.836 123.532 249 123.463 248.179C123.31 245.881 123.142 243.611 122.989 241.383C122.989 240.924 122.989 240.478 122.892 239.991C122.683 236.913 122.474 233.891 122.251 230.953C122.168 229.742 122.07 228.558 121.987 227.374C121.652 222.862 121.346 218.573 121.04 214.563C120.845 212.015 120.664 209.564 120.483 207.266C120.218 203.618 119.967 200.303 119.745 197.407L175.307 191.224C180.056 206.542 181.782 223.406 182.27 237.415C182.27 237.916 182.27 238.417 182.27 238.891C182.27 241.495 182.353 243.987 182.339 246.369Z" fill="#3399CC"/>
<path opacity="0.2" d="M120.483 207.238C120.664 209.55 120.845 211.987 121.04 214.549C121.346 218.56 121.652 222.835 121.987 227.36C123.112 221.744 123.671 216.029 123.658 210.302L120.483 207.238Z" fill="black"/>
<path opacity="0.4" d="M182.27 254.445C182.172 256.771 182.075 258.832 181.977 260.6L124.424 261.143C124.284 259.264 124.173 257.384 124.048 255.573L182.27 254.445Z" fill="white"/>
<path opacity="0.4" d="M182.339 246.369C182.339 247.288 182.339 248.193 182.339 249.07L123.644 250.546C123.574 249.725 123.532 248.889 123.463 248.067L182.339 246.369Z" fill="white"/>
<path opacity="0.4" d="M182.27 238.891L123.003 241.328C123.003 240.868 123.003 240.422 122.906 239.935L182.228 237.387C182.27 237.916 182.27 238.417 182.27 238.891Z" fill="white"/>
<path d="M137.179 195.861C142.179 200.039 149.712 201.348 149.712 201.348C149.712 201.348 158.29 194.914 156.675 192.686C152.316 192.171 152.929 190.862 151.954 188.313C151.405 186.731 151.183 185.054 151.3 183.384C151.323 182.452 151.402 181.522 151.536 180.599L136.497 170.461C138.739 177.507 141.649 190.5 137.179 195.861Z" fill="#E4897B"/>
<path opacity="0.2" d="M140.187 177.187C141.148 185.891 148.431 187.979 151.968 188.327C151.419 186.745 151.197 185.068 151.314 183.398L140.187 177.187Z" fill="black"/>
<path d="M155.046 145.019C155.046 145.019 161.201 157.803 155.658 165.156C150.116 172.508 142.457 147.498 142.457 147.498L155.046 145.019Z" fill="#263238"/>
<path d="M138.252 182.158C140.421 183.911 143.106 184.902 145.893 184.98C148.681 185.058 151.417 184.218 153.681 182.59C156.652 180.544 158.729 177.441 159.488 173.915C159.601 173.423 159.684 172.926 159.739 172.425C160.727 163.15 157.441 148.473 147.122 145.757C144.846 145.15 142.453 145.134 140.17 145.711C137.886 146.288 135.788 147.438 134.074 149.054C132.359 150.669 131.086 152.695 130.374 154.94C129.663 157.186 129.537 159.575 130.008 161.883C131.888 171.798 132.528 177.716 138.252 182.158Z" fill="#E4897B"/>
<path d="M145.562 162.719C145.562 163.526 146.175 164.111 146.718 164.111C147.261 164.111 147.596 163.317 147.498 162.51C147.401 161.702 146.858 161.117 146.328 161.117C145.799 161.117 145.465 161.897 145.562 162.719Z" fill="#263238"/>
<path d="M154.767 161.521C154.767 162.343 155.394 162.914 155.923 162.914C156.452 162.914 156.8 162.12 156.703 161.312C156.605 160.504 156.076 159.92 155.547 159.92C155.018 159.92 154.67 160.755 154.767 161.521Z" fill="#263238"/>
<path d="M151.898 162.301C153.188 164.671 154.8 166.85 156.689 168.776C156.18 169.245 155.575 169.599 154.917 169.813C154.258 170.027 153.561 170.096 152.873 170.016L151.898 162.301Z" fill="#DE5753"/>
<path d="M157.65 157.316C157.571 157.359 157.482 157.382 157.392 157.382C157.302 157.382 157.213 157.359 157.134 157.316C156.612 157.015 156.027 156.84 155.425 156.804C154.824 156.767 154.222 156.871 153.667 157.107C153.556 157.168 153.426 157.182 153.304 157.147C153.183 157.111 153.08 157.029 153.02 156.919C152.959 156.808 152.944 156.677 152.979 156.556C153.015 156.435 153.097 156.332 153.208 156.271C153.901 155.952 154.661 155.803 155.424 155.836C156.187 155.87 156.931 156.086 157.594 156.466C157.708 156.525 157.794 156.628 157.833 156.75C157.873 156.873 157.862 157.006 157.803 157.121C157.76 157.192 157.709 157.257 157.65 157.316Z" fill="#263238"/>
<path d="M143.279 159.293C143.188 159.321 143.091 159.321 143 159.293C142.911 159.202 142.861 159.079 142.861 158.952C142.861 158.824 142.911 158.702 143 158.611C143.495 158.023 144.124 157.563 144.835 157.27C145.545 156.977 146.315 156.859 147.08 156.926C147.208 156.946 147.322 157.016 147.397 157.121C147.473 157.225 147.504 157.355 147.484 157.483C147.46 157.606 147.392 157.715 147.291 157.79C147.191 157.865 147.066 157.899 146.941 157.886C146.335 157.849 145.729 157.956 145.172 158.198C144.616 158.44 144.124 158.81 143.738 159.279C143.669 159.319 143.59 159.341 143.51 159.344C143.43 159.346 143.351 159.329 143.279 159.293Z" fill="#263238"/>
<path d="M135.745 148.459L136.943 150.186C133.851 151.843 135.174 155.533 136.149 157.148C138.21 160.588 137.138 166.659 134.756 169.445C134.756 169.445 134.38 167.871 133.099 168.484C131.818 169.096 133.67 177.34 136.998 180.836C136.998 180.836 132.389 177.967 128.643 169.695C125.134 161.994 123.672 155.324 124.772 151.912L135.745 148.459Z" fill="#263238"/>
<path d="M126.707 170.656C127.394 171.719 128.283 172.635 129.325 173.352C130.367 174.069 131.541 174.573 132.779 174.834C136.079 175.488 137.472 172.466 136.344 169.472C135.327 166.827 132.375 163.22 129.158 163.902C125.942 164.585 125.009 168.024 126.707 170.656Z" fill="#E4897B"/>
<path d="M152.873 173.204C152.158 174.475 151.539 175.797 151.021 177.159C150.757 177.159 150.506 177.062 150.255 176.992C146.857 176.24 145.521 174.764 145.075 173.358C144.872 172.67 144.839 171.944 144.978 171.241C145.04 170.835 145.162 170.441 145.34 170.071C147.241 171.446 149.417 172.396 151.717 172.856C152.428 173.121 152.873 173.204 152.873 173.204Z" fill="#263238"/>
<path d="M151.717 172.926L151.146 174.082C147.93 173.358 145.771 172.425 144.978 171.297C145.04 170.891 145.162 170.497 145.34 170.127C147.24 171.506 149.415 172.461 151.717 172.926Z" fill="white"/>
<path d="M150.241 176.992C146.844 176.24 145.507 174.764 145.061 173.358C146.352 173.67 147.577 174.208 148.682 174.945C149.404 175.446 149.95 176.163 150.241 176.992Z" fill="#DE5753"/>
<path d="M124.354 158.081C124.354 158.081 119.313 150.227 128.671 141.844C138.029 133.461 150.353 136.97 152.957 140.452C152.957 140.452 160.421 142.095 156.717 149.503L151.801 145.632C151.801 145.632 143.989 158.332 124.354 158.081Z" fill="#263238"/>
<path d="M159.39 193.313L154.503 230.967L134.464 196.07L149.462 198.744L159.39 193.313Z" fill="#3399CC"/>
<path opacity="0.4" d="M159.39 193.313L155.533 223.002L154.503 230.967L150.701 224.352L134.464 196.07L149.462 198.744L159.39 193.313Z" fill="white"/>
<path d="M155.533 223.002L154.503 230.967L150.701 224.352L149.879 207.934L143.042 200.972L149.462 198.744L150.088 198.535L155.603 199.217L152.553 206.848L155.533 223.002Z" fill="#263238"/>
<path d="M138.934 191.711L149.489 197.463L152.957 190.361L159.39 193.313L157.023 204.481L150.172 200.262L145.061 206.793L134.464 196.07L138.934 191.711Z" fill="#3399CC"/>
<path opacity="0.6" d="M138.934 191.711L149.489 197.463L152.957 190.361L159.39 193.313L157.023 204.481L150.172 200.262L145.061 206.793L134.464 196.07L138.934 191.711Z" fill="white"/>
</g>
<defs>
<clipPath id="clip0">
<rect width="540" height="540" fill="white"/>
</clipPath>
</defs>
</svg>
