<svg width="540" height="540" viewBox="0 0 540 540" fill="none" xmlns="http://www.w3.org/2000/svg">
<g clip-path="url(#clip0)">
<path d="M377.911 299.385C445.096 272.036 514.222 317.883 536.525 223.256C549.843 166.721 523.947 112.775 474.85 73.3623C417.786 27.5288 367.605 15.3206 303.711 55.0897C239.129 95.2287 223.261 101.703 149.298 94.5813C33.2678 83.4037 -60.7775 225.383 48.2373 306.837C101.219 346.474 181.417 383.535 247.743 384.446C270.297 384.75 300.883 382.266 320.2 368.592C347.153 349.592 342.264 313.84 377.911 299.385Z" fill="#D6EBF5"/>
<path opacity="0.16" d="M273.679 508.88C415.16 508.88 529.853 502.184 529.853 493.924C529.853 485.663 415.16 478.967 273.679 478.967C132.198 478.967 17.5054 485.663 17.5054 493.924C17.5054 502.184 132.198 508.88 273.679 508.88Z" fill="#263238"/>
<path d="M254.931 477.487H100.439V495.113H254.931V477.487Z" fill="#3399CC"/>
<path opacity="0.3" d="M254.931 477.487H100.439V495.113H254.931V477.487Z" fill="black"/>
<path d="M108.327 479.998H104.456V492.616H108.327V479.998Z" fill="#263238"/>
<path d="M115.118 479.998H111.247V492.616H115.118V479.998Z" fill="#263238"/>
<path d="M121.922 479.998H118.051V492.616H121.922V479.998Z" fill="#263238"/>
<path d="M128.713 479.998H124.842V492.616H128.713V479.998Z" fill="#263238"/>
<path d="M135.505 479.998H131.633V492.616H135.505V479.998Z" fill="#263238"/>
<path d="M142.296 479.998H138.425V492.616H142.296V479.998Z" fill="#263238"/>
<path d="M149.1 479.998H145.229V492.616H149.1V479.998Z" fill="#263238"/>
<path d="M155.891 479.998H152.02V492.616H155.891V479.998Z" fill="#263238"/>
<path d="M162.683 479.998H158.811V492.616H162.683V479.998Z" fill="#263238"/>
<path d="M169.474 479.998H165.602V492.616H169.474V479.998Z" fill="#263238"/>
<path d="M176.265 479.998H172.393V492.616H176.265V479.998Z" fill="#263238"/>
<path d="M183.069 479.998H179.198V492.616H183.069V479.998Z" fill="#263238"/>
<path d="M189.86 479.998H185.989V492.616H189.86V479.998Z" fill="#263238"/>
<path d="M196.651 479.998H192.78V492.616H196.651V479.998Z" fill="#263238"/>
<path d="M203.442 479.998H199.571V492.616H203.442V479.998Z" fill="#263238"/>
<path d="M210.247 479.998H206.375V492.616H210.247V479.998Z" fill="#263238"/>
<path d="M217.038 479.998H213.167V492.616H217.038V479.998Z" fill="#263238"/>
<path d="M223.829 479.998H219.958V492.616H223.829V479.998Z" fill="#263238"/>
<path d="M230.62 479.998H226.749V492.616H230.62V479.998Z" fill="#263238"/>
<path d="M237.424 479.998H233.553V492.616H237.424V479.998Z" fill="#263238"/>
<path d="M244.216 479.998H240.344V492.616H244.216V479.998Z" fill="#263238"/>
<path d="M251.007 479.998H247.135V492.616H251.007V479.998Z" fill="#263238"/>
<path d="M254.944 495.126H279.043V477.501H254.944V495.126Z" fill="#263238"/>
<path d="M254.944 166.007H92.406V477.487H254.944V166.007Z" fill="#3399CC"/>
<path opacity="0.3" d="M254.944 166.007H92.406V477.487H254.944V166.007Z" fill="white"/>
<path d="M276.414 163.338H103.055V166.007H276.414V163.338Z" fill="#263238"/>
<path d="M87.2797 311.144H85.9585V324.264H87.2797V311.144Z" fill="#3399CC"/>
<path d="M87.2797 328.677H85.9585V362.805H87.2797V328.677Z" fill="#3399CC"/>
<path d="M254.931 477.487H287.076L287.076 166.007H254.931L254.931 477.487Z" fill="#3399CC"/>
<g style="mix-blend-mode:multiply" opacity="0.6">
<path d="M246.832 248.399H100.505C98.1191 248.399 96.1848 250.333 96.1848 252.72V274.995C96.1848 277.382 98.1191 279.316 100.505 279.316H246.832C249.218 279.316 251.152 277.382 251.152 274.995V252.72C251.152 250.333 249.218 248.399 246.832 248.399Z" fill="#3399CC"/>
</g>
<path opacity="0.2" d="M246.832 248.399H100.505C98.1191 248.399 96.1848 250.333 96.1848 252.72V274.995C96.1848 277.382 98.1191 279.316 100.505 279.316H246.832C249.218 279.316 251.152 277.382 251.152 274.995V252.72C251.152 250.333 249.218 248.399 246.832 248.399Z" fill="black"/>
<path d="M238.111 259.748L231.862 246.853V280.888H251.218V263.857H244.744C243.365 263.863 242.011 263.481 240.838 262.754C239.666 262.028 238.721 260.986 238.111 259.748Z" fill="#3399CC"/>
<path d="M251.152 169.733H96.1848V203.86H251.152V169.733Z" fill="#3399CC"/>
<path opacity="0.2" d="M251.152 169.733H96.1848V203.86H251.152V169.733Z" fill="white"/>
<path d="M251.152 439.436H96.1848V473.563H251.152V439.436Z" fill="#3399CC"/>
<path opacity="0.2" d="M251.152 439.436H96.1848V473.563H251.152V439.436Z" fill="white"/>
<path d="M251.152 400.909H96.1848V435.036H251.152V400.909Z" fill="#3399CC"/>
<path opacity="0.2" d="M251.152 400.909H96.1848V435.036H251.152V400.909Z" fill="white"/>
<path d="M251.152 362.382H96.1848V396.509H251.152V362.382Z" fill="#3399CC"/>
<path opacity="0.2" d="M251.152 362.382H96.1848V396.509H251.152V362.382Z" fill="white"/>
<path d="M251.152 323.855H96.1848V357.982H251.152V323.855Z" fill="#3399CC"/>
<path opacity="0.2" d="M251.152 323.855H96.1848V357.982H251.152V323.855Z" fill="white"/>
<path d="M251.152 285.328H96.1848V319.455H251.152V285.328Z" fill="#3399CC"/>
<path opacity="0.2" d="M251.152 285.328H96.1848V319.455H251.152V285.328Z" fill="white"/>
<path d="M231.862 246.8H76.8948V280.928H231.862V246.8Z" fill="#3399CC"/>
<path opacity="0.2" d="M231.862 246.8H76.8948V280.928H231.862V246.8Z" fill="white"/>
<path d="M251.152 208.26H96.1848V242.388H251.152V208.26Z" fill="#3399CC"/>
<path opacity="0.2" d="M251.152 208.26H96.1848V242.388H251.152V208.26Z" fill="white"/>
<path d="M241.507 174.608H182.593C179.842 174.608 177.612 176.838 177.612 179.589V194.004C177.612 196.755 179.842 198.985 182.593 198.985H241.507C244.258 198.985 246.488 196.755 246.488 194.004V179.589C246.488 176.838 244.258 174.608 241.507 174.608Z" fill="#3399CC"/>
<path opacity="0.2" d="M237.411 187.807V185.799C237.411 184.632 236.465 183.685 235.297 183.685H216.205C215.038 183.685 214.091 184.632 214.091 185.799V187.807C214.091 188.975 215.038 189.921 216.205 189.921H235.297C236.465 189.921 237.411 188.975 237.411 187.807Z" fill="white"/>
<path d="M241.507 213.135H182.593C179.842 213.135 177.612 215.366 177.612 218.116V232.531C177.612 235.282 179.842 237.512 182.593 237.512H241.507C244.258 237.512 246.488 235.282 246.488 232.531V218.116C246.488 215.366 244.258 213.135 241.507 213.135Z" fill="#3399CC"/>
<path opacity="0.2" d="M237.411 226.335V224.326C237.411 223.159 236.465 222.212 235.297 222.212H216.205C215.038 222.212 214.091 223.159 214.091 224.326V226.335C214.091 227.502 215.038 228.448 216.205 228.448H235.297C236.465 228.448 237.411 227.502 237.411 226.335Z" fill="white"/>
<path d="M222.217 251.676H163.303C160.552 251.676 158.322 253.906 158.322 256.657V271.071C158.322 273.822 160.552 276.052 163.303 276.052H222.217C224.968 276.052 227.198 273.822 227.198 271.071V256.657C227.198 253.906 224.968 251.676 222.217 251.676Z" fill="#3399CC"/>
<path opacity="0.2" d="M218.121 264.862V262.853C218.121 261.686 217.175 260.739 216.007 260.739H196.916C195.748 260.739 194.802 261.686 194.802 262.853V264.862C194.802 266.029 195.748 266.976 196.916 266.976H216.007C217.175 266.976 218.121 266.029 218.121 264.862Z" fill="white"/>
<path d="M241.507 290.203H182.593C179.842 290.203 177.612 292.433 177.612 295.184V309.599C177.612 312.349 179.842 314.58 182.593 314.58H241.507C244.258 314.58 246.488 312.349 246.488 309.599V295.184C246.488 292.433 244.258 290.203 241.507 290.203Z" fill="#3399CC"/>
<path opacity="0.2" d="M237.411 303.389V301.38C237.411 300.213 236.465 299.266 235.297 299.266H216.205C215.038 299.266 214.091 300.213 214.091 301.38V303.389C214.091 304.556 215.038 305.503 216.205 305.503H235.297C236.465 305.503 237.411 304.556 237.411 303.389Z" fill="white"/>
<path d="M241.507 328.73H182.593C179.842 328.73 177.612 330.96 177.612 333.711V348.126C177.612 350.877 179.842 353.107 182.593 353.107H241.507C244.258 353.107 246.488 350.877 246.488 348.126V333.711C246.488 330.96 244.258 328.73 241.507 328.73Z" fill="#3399CC"/>
<path opacity="0.2" d="M237.411 341.916V339.908C237.411 338.74 236.465 337.794 235.297 337.794H216.206C215.038 337.794 214.092 338.74 214.092 339.908V341.916C214.092 343.083 215.038 344.03 216.206 344.03H235.297C236.465 344.03 237.411 343.083 237.411 341.916Z" fill="white"/>
<path d="M241.507 367.257H182.593C179.842 367.257 177.612 369.487 177.612 372.238V386.653C177.612 389.404 179.842 391.634 182.593 391.634H241.507C244.258 391.634 246.488 389.404 246.488 386.653V372.238C246.488 369.487 244.258 367.257 241.507 367.257Z" fill="#3399CC"/>
<path opacity="0.2" d="M237.411 380.443V378.435C237.411 377.267 236.465 376.321 235.297 376.321H216.206C215.038 376.321 214.092 377.267 214.092 378.435V380.443C214.092 381.611 215.038 382.557 216.206 382.557H235.297C236.465 382.557 237.411 381.611 237.411 380.443Z" fill="white"/>
<path d="M241.507 405.784H182.593C179.842 405.784 177.612 408.014 177.612 410.765V425.18C177.612 427.931 179.842 430.161 182.593 430.161H241.507C244.258 430.161 246.488 427.931 246.488 425.18V410.765C246.488 408.014 244.258 405.784 241.507 405.784Z" fill="#3399CC"/>
<path opacity="0.2" d="M237.411 418.983V416.975C237.411 415.808 236.465 414.861 235.297 414.861H216.205C215.038 414.861 214.091 415.808 214.091 416.975V418.983C214.091 420.151 215.038 421.097 216.205 421.097H235.297C236.465 421.097 237.411 420.151 237.411 418.983Z" fill="white"/>
<path d="M241.507 444.311H182.593C179.842 444.311 177.612 446.541 177.612 449.292V463.707C177.612 466.458 179.842 468.688 182.593 468.688H241.507C244.258 468.688 246.488 466.458 246.488 463.707V449.292C246.488 446.541 244.258 444.311 241.507 444.311Z" fill="#3399CC"/>
<path opacity="0.2" d="M237.425 457.51V455.502C237.425 454.335 236.478 453.388 235.311 453.388H216.219C215.051 453.388 214.105 454.335 214.105 455.502V457.51C214.105 458.678 215.051 459.624 216.219 459.624H235.311C236.478 459.624 237.425 458.678 237.425 457.51Z" fill="white"/>
<path d="M165.629 190.741C167.803 190.741 169.566 188.978 169.566 186.803C169.566 184.629 167.803 182.866 165.629 182.866C163.454 182.866 161.691 184.629 161.691 186.803C161.691 188.978 163.454 190.741 165.629 190.741Z" fill="#3399CC"/>
<path d="M154.372 190.741C156.546 190.741 158.309 188.978 158.309 186.803C158.309 184.629 156.546 182.866 154.372 182.866C152.197 182.866 150.435 184.629 150.435 186.803C150.435 188.978 152.197 190.741 154.372 190.741Z" fill="#3399CC"/>
<path d="M143.128 190.741C145.303 190.741 147.065 188.978 147.065 186.803C147.065 184.629 145.303 182.866 143.128 182.866C140.954 182.866 139.191 184.629 139.191 186.803C139.191 188.978 140.954 190.741 143.128 190.741Z" fill="#3399CC"/>
<path opacity="0.4" d="M143.128 190.741C145.303 190.741 147.065 188.978 147.065 186.803C147.065 184.629 145.303 182.866 143.128 182.866C140.954 182.866 139.191 184.629 139.191 186.803C139.191 188.978 140.954 190.741 143.128 190.741Z" fill="white"/>
<path d="M135.809 186.803C135.809 187.587 135.576 188.354 135.141 189.005C134.705 189.657 134.086 190.165 133.362 190.465C132.637 190.765 131.84 190.844 131.072 190.691C130.303 190.538 129.596 190.16 129.042 189.606C128.488 189.052 128.11 188.345 127.957 187.577C127.804 186.808 127.883 186.011 128.183 185.286C128.483 184.562 128.991 183.943 129.643 183.508C130.295 183.072 131.061 182.84 131.845 182.84C132.896 182.84 133.904 183.257 134.648 184C135.391 184.744 135.809 185.752 135.809 186.803Z" fill="#3399CC"/>
<path d="M165.629 229.268C167.803 229.268 169.566 227.505 169.566 225.33C169.566 223.156 167.803 221.393 165.629 221.393C163.454 221.393 161.691 223.156 161.691 225.33C161.691 227.505 163.454 229.268 165.629 229.268Z" fill="#3399CC"/>
<path d="M154.372 229.268C156.546 229.268 158.309 227.505 158.309 225.33C158.309 223.156 156.546 221.393 154.372 221.393C152.197 221.393 150.435 223.156 150.435 225.33C150.435 227.505 152.197 229.268 154.372 229.268Z" fill="#3399CC"/>
<path d="M143.128 229.268C145.303 229.268 147.065 227.505 147.065 225.33C147.065 223.156 145.303 221.393 143.128 221.393C140.954 221.393 139.191 223.156 139.191 225.33C139.191 227.505 140.954 229.268 143.128 229.268Z" fill="#3399CC"/>
<path d="M135.809 225.396C135.809 226.18 135.576 226.947 135.141 227.599C134.705 228.25 134.086 228.758 133.362 229.058C132.637 229.358 131.84 229.437 131.072 229.284C130.303 229.131 129.596 228.754 129.042 228.199C128.488 227.645 128.11 226.939 127.957 226.17C127.804 225.401 127.883 224.604 128.183 223.88C128.483 223.155 128.991 222.536 129.643 222.101C130.295 221.665 131.061 221.433 131.845 221.433C132.896 221.433 133.904 221.85 134.648 222.594C135.391 223.337 135.809 224.345 135.809 225.396Z" fill="#3399CC"/>
<path opacity="0.4" d="M135.809 225.396C135.809 226.18 135.576 226.947 135.141 227.599C134.705 228.25 134.086 228.758 133.362 229.058C132.637 229.358 131.84 229.437 131.072 229.284C130.303 229.131 129.596 228.754 129.042 228.199C128.488 227.645 128.11 226.939 127.957 226.17C127.804 225.401 127.883 224.604 128.183 223.88C128.483 223.155 128.991 222.536 129.643 222.101C130.295 221.665 131.061 221.433 131.845 221.433C132.896 221.433 133.904 221.85 134.648 222.594C135.391 223.337 135.809 224.345 135.809 225.396Z" fill="white"/>
<path d="M146.339 267.795C148.513 267.795 150.276 266.032 150.276 263.857C150.276 261.683 148.513 259.92 146.339 259.92C144.164 259.92 142.401 261.683 142.401 263.857C142.401 266.032 144.164 267.795 146.339 267.795Z" fill="#3399CC"/>
<path opacity="0.4" d="M146.339 267.795C148.513 267.795 150.276 266.032 150.276 263.857C150.276 261.683 148.513 259.92 146.339 259.92C144.164 259.92 142.401 261.683 142.401 263.857C142.401 266.032 144.164 267.795 146.339 267.795Z" fill="white"/>
<path d="M135.082 267.795C137.256 267.795 139.019 266.032 139.019 263.857C139.019 261.683 137.256 259.92 135.082 259.92C132.907 259.92 131.145 261.683 131.145 263.857C131.145 266.032 132.907 267.795 135.082 267.795Z" fill="#3399CC"/>
<path d="M123.838 267.795C126.013 267.795 127.775 266.032 127.775 263.857C127.775 261.683 126.013 259.92 123.838 259.92C121.664 259.92 119.901 261.683 119.901 263.857C119.901 266.032 121.664 267.795 123.838 267.795Z" fill="#3399CC"/>
<path opacity="0.4" d="M123.838 267.795C126.013 267.795 127.775 266.032 127.775 263.857C127.775 261.683 126.013 259.92 123.838 259.92C121.664 259.92 119.901 261.683 119.901 263.857C119.901 266.032 121.664 267.795 123.838 267.795Z" fill="white"/>
<path d="M112.581 267.795C114.756 267.795 116.519 266.032 116.519 263.857C116.519 261.683 114.756 259.92 112.581 259.92C110.407 259.92 108.644 261.683 108.644 263.857C108.644 266.032 110.407 267.795 112.581 267.795Z" fill="#3399CC"/>
<path d="M165.629 306.322C167.803 306.322 169.566 304.559 169.566 302.385C169.566 300.21 167.803 298.447 165.629 298.447C163.454 298.447 161.691 300.21 161.691 302.385C161.691 304.559 163.454 306.322 165.629 306.322Z" fill="#3399CC"/>
<path opacity="0.4" d="M165.629 306.322C167.803 306.322 169.566 304.559 169.566 302.385C169.566 300.21 167.803 298.447 165.629 298.447C163.454 298.447 161.691 300.21 161.691 302.385C161.691 304.559 163.454 306.322 165.629 306.322Z" fill="white"/>
<path d="M154.372 306.322C156.546 306.322 158.309 304.559 158.309 302.385C158.309 300.21 156.546 298.447 154.372 298.447C152.197 298.447 150.435 300.21 150.435 302.385C150.435 304.559 152.197 306.322 154.372 306.322Z" fill="#3399CC"/>
<path opacity="0.4" d="M154.372 306.322C156.546 306.322 158.309 304.559 158.309 302.385C158.309 300.21 156.546 298.447 154.372 298.447C152.197 298.447 150.435 300.21 150.435 302.385C150.435 304.559 152.197 306.322 154.372 306.322Z" fill="white"/>
<path d="M143.128 306.322C145.303 306.322 147.065 304.559 147.065 302.385C147.065 300.21 145.303 298.447 143.128 298.447C140.954 298.447 139.191 300.21 139.191 302.385C139.191 304.559 140.954 306.322 143.128 306.322Z" fill="#3399CC"/>
<path d="M135.809 302.385C135.809 303.169 135.576 303.935 135.141 304.587C134.705 305.239 134.086 305.747 133.362 306.047C132.637 306.347 131.84 306.425 131.072 306.272C130.303 306.119 129.596 305.742 129.042 305.187C128.488 304.633 128.11 303.927 127.957 303.158C127.804 302.389 127.883 301.592 128.183 300.868C128.483 300.143 128.991 299.524 129.643 299.089C130.295 298.653 131.061 298.421 131.845 298.421C132.896 298.421 133.904 298.839 134.648 299.582C135.391 300.325 135.809 301.333 135.809 302.385Z" fill="#3399CC"/>
<path d="M165.629 344.849C167.803 344.849 169.566 343.086 169.566 340.912C169.566 338.737 167.803 336.974 165.629 336.974C163.454 336.974 161.691 338.737 161.691 340.912C161.691 343.086 163.454 344.849 165.629 344.849Z" fill="#3399CC"/>
<path d="M154.372 344.849C156.546 344.849 158.309 343.086 158.309 340.912C158.309 338.737 156.546 336.974 154.372 336.974C152.197 336.974 150.435 338.737 150.435 340.912C150.435 343.086 152.197 344.849 154.372 344.849Z" fill="#3399CC"/>
<path opacity="0.4" d="M154.372 344.849C156.546 344.849 158.309 343.086 158.309 340.912C158.309 338.737 156.546 336.974 154.372 336.974C152.197 336.974 150.435 338.737 150.435 340.912C150.435 343.086 152.197 344.849 154.372 344.849Z" fill="white"/>
<path d="M143.128 344.849C145.303 344.849 147.065 343.086 147.065 340.912C147.065 338.737 145.303 336.974 143.128 336.974C140.954 336.974 139.191 338.737 139.191 340.912C139.191 343.086 140.954 344.849 143.128 344.849Z" fill="#3399CC"/>
<path d="M135.809 340.912C135.809 341.696 135.576 342.462 135.141 343.114C134.705 343.766 134.086 344.274 133.362 344.574C132.637 344.874 131.84 344.952 131.072 344.799C130.303 344.646 129.596 344.269 129.042 343.714C128.488 343.16 128.11 342.454 127.957 341.685C127.804 340.916 127.883 340.119 128.183 339.395C128.483 338.671 128.991 338.052 129.643 337.616C130.295 337.18 131.061 336.948 131.845 336.948C132.896 336.948 133.904 337.366 134.648 338.109C135.391 338.852 135.809 339.86 135.809 340.912Z" fill="#3399CC"/>
<path d="M165.629 383.376C167.803 383.376 169.566 381.613 169.566 379.439C169.566 377.264 167.803 375.502 165.629 375.502C163.454 375.502 161.691 377.264 161.691 379.439C161.691 381.613 163.454 383.376 165.629 383.376Z" fill="#3399CC"/>
<path d="M154.372 383.376C156.546 383.376 158.309 381.613 158.309 379.439C158.309 377.264 156.546 375.502 154.372 375.502C152.197 375.502 150.435 377.264 150.435 379.439C150.435 381.613 152.197 383.376 154.372 383.376Z" fill="#3399CC"/>
<path d="M143.128 383.376C145.303 383.376 147.065 381.613 147.065 379.439C147.065 377.264 145.303 375.502 143.128 375.502C140.954 375.502 139.191 377.264 139.191 379.439C139.191 381.613 140.954 383.376 143.128 383.376Z" fill="#3399CC"/>
<path opacity="0.4" d="M143.128 383.376C145.303 383.376 147.065 381.613 147.065 379.439C147.065 377.264 145.303 375.502 143.128 375.502C140.954 375.502 139.191 377.264 139.191 379.439C139.191 381.613 140.954 383.376 143.128 383.376Z" fill="white"/>
<path d="M135.809 379.439C135.809 380.223 135.576 380.989 135.141 381.641C134.705 382.293 134.086 382.801 133.362 383.101C132.637 383.401 131.84 383.479 131.072 383.326C130.303 383.173 129.596 382.796 129.042 382.242C128.488 381.687 128.11 380.981 127.957 380.212C127.804 379.443 127.883 378.646 128.183 377.922C128.483 377.198 128.991 376.579 129.643 376.143C130.295 375.708 131.061 375.475 131.845 375.475C132.896 375.475 133.904 375.893 134.648 376.636C135.391 377.379 135.809 378.388 135.809 379.439Z" fill="#3399CC"/>
<path opacity="0.4" d="M135.809 379.439C135.809 380.223 135.576 380.989 135.141 381.641C134.705 382.293 134.086 382.801 133.362 383.101C132.637 383.401 131.84 383.479 131.072 383.326C130.303 383.173 129.596 382.796 129.042 382.242C128.488 381.687 128.11 380.981 127.957 380.212C127.804 379.443 127.883 378.646 128.183 377.922C128.483 377.198 128.991 376.579 129.643 376.143C130.295 375.708 131.061 375.475 131.845 375.475C132.896 375.475 133.904 375.893 134.648 376.636C135.391 377.379 135.809 378.388 135.809 379.439Z" fill="white"/>
<path d="M169.566 417.979C169.566 418.763 169.334 419.529 168.898 420.181C168.463 420.833 167.843 421.341 167.119 421.641C166.395 421.941 165.598 422.02 164.829 421.867C164.06 421.714 163.354 421.336 162.8 420.782C162.245 420.228 161.868 419.521 161.715 418.753C161.562 417.984 161.64 417.187 161.94 416.462C162.24 415.738 162.748 415.119 163.4 414.684C164.052 414.248 164.818 414.016 165.602 414.016C166.654 414.016 167.662 414.433 168.405 415.176C169.148 415.92 169.566 416.928 169.566 417.979Z" fill="#3399CC"/>
<path opacity="0.4" d="M169.566 417.979C169.566 418.763 169.334 419.529 168.898 420.181C168.463 420.833 167.843 421.341 167.119 421.641C166.395 421.941 165.598 422.02 164.829 421.867C164.06 421.714 163.354 421.336 162.8 420.782C162.245 420.228 161.868 419.521 161.715 418.753C161.562 417.984 161.64 417.187 161.94 416.462C162.24 415.738 162.748 415.119 163.4 414.684C164.052 414.248 164.818 414.016 165.602 414.016C166.654 414.016 167.662 414.433 168.405 415.176C169.148 415.92 169.566 416.928 169.566 417.979Z" fill="white"/>
<path d="M158.322 417.979C158.322 418.763 158.09 419.529 157.654 420.181C157.219 420.833 156.6 421.341 155.876 421.641C155.151 421.941 154.354 422.02 153.585 421.867C152.817 421.714 152.11 421.336 151.556 420.782C151.002 420.228 150.624 419.521 150.471 418.753C150.318 417.984 150.397 417.187 150.697 416.462C150.997 415.738 151.505 415.119 152.157 414.684C152.808 414.248 153.575 414.016 154.359 414.016C155.41 414.016 156.418 414.433 157.161 415.176C157.905 415.92 158.322 416.928 158.322 417.979Z" fill="#3399CC"/>
<path d="M147.065 417.979C147.065 418.763 146.833 419.529 146.397 420.181C145.962 420.833 145.343 421.341 144.618 421.641C143.894 421.941 143.097 422.02 142.328 421.867C141.559 421.714 140.853 421.336 140.299 420.782C139.745 420.228 139.367 419.521 139.214 418.753C139.061 417.984 139.14 417.187 139.44 416.462C139.74 415.738 140.248 415.119 140.9 414.684C141.551 414.248 142.318 414.016 143.102 414.016C144.153 414.016 145.161 414.433 145.904 415.176C146.648 415.92 147.065 416.928 147.065 417.979Z" fill="#3399CC"/>
<path d="M135.809 417.979C135.809 418.763 135.576 419.529 135.141 420.181C134.705 420.833 134.086 421.341 133.362 421.641C132.637 421.941 131.84 422.02 131.072 421.867C130.303 421.714 129.596 421.336 129.042 420.782C128.488 420.228 128.11 419.521 127.957 418.753C127.804 417.984 127.883 417.187 128.183 416.462C128.483 415.738 128.991 415.119 129.643 414.684C130.295 414.248 131.061 414.016 131.845 414.016C132.896 414.016 133.904 414.433 134.648 415.176C135.391 415.92 135.809 416.928 135.809 417.979Z" fill="#3399CC"/>
<path d="M165.629 460.444C167.803 460.444 169.566 458.681 169.566 456.506C169.566 454.332 167.803 452.569 165.629 452.569C163.454 452.569 161.691 454.332 161.691 456.506C161.691 458.681 163.454 460.444 165.629 460.444Z" fill="#3399CC"/>
<path d="M154.372 460.444C156.546 460.444 158.309 458.681 158.309 456.506C158.309 454.332 156.546 452.569 154.372 452.569C152.197 452.569 150.435 454.332 150.435 456.506C150.435 458.681 152.197 460.444 154.372 460.444Z" fill="#3399CC"/>
<path d="M143.128 460.444C145.303 460.444 147.065 458.681 147.065 456.506C147.065 454.332 145.303 452.569 143.128 452.569C140.954 452.569 139.191 454.332 139.191 456.506C139.191 458.681 140.954 460.444 143.128 460.444Z" fill="#3399CC"/>
<path opacity="0.4" d="M143.128 460.444C145.303 460.444 147.065 458.681 147.065 456.506C147.065 454.332 145.303 452.569 143.128 452.569C140.954 452.569 139.191 454.332 139.191 456.506C139.191 458.681 140.954 460.444 143.128 460.444Z" fill="white"/>
<path d="M135.809 456.506C135.809 457.29 135.576 458.057 135.141 458.708C134.705 459.36 134.086 459.868 133.362 460.168C132.637 460.468 131.84 460.547 131.072 460.394C130.303 460.241 129.596 459.863 129.042 459.309C128.488 458.755 128.11 458.048 127.957 457.28C127.804 456.511 127.883 455.714 128.183 454.989C128.483 454.265 128.991 453.646 129.643 453.211C130.295 452.775 131.061 452.543 131.845 452.543C132.896 452.543 133.904 452.96 134.648 453.704C135.391 454.447 135.809 455.455 135.809 456.506Z" fill="#3399CC"/>
<path d="M120.073 186.803C120.073 188.492 119.572 190.143 118.633 191.547C117.695 192.95 116.361 194.044 114.801 194.69C113.24 195.336 111.524 195.504 109.868 195.173C108.212 194.843 106.691 194.029 105.498 192.834C104.305 191.639 103.493 190.117 103.165 188.46C102.837 186.804 103.008 185.087 103.656 183.528C104.304 181.968 105.4 180.636 106.805 179.7C108.211 178.764 109.862 178.265 111.551 178.268C113.812 178.272 115.98 179.172 117.578 180.773C119.175 182.373 120.073 184.542 120.073 186.803Z" fill="#3399CC"/>
<path opacity="0.4" d="M120.073 186.803C120.073 188.492 119.572 190.143 118.633 191.547C117.695 192.95 116.361 194.044 114.801 194.69C113.24 195.336 111.524 195.504 109.868 195.173C108.212 194.843 106.691 194.029 105.498 192.834C104.305 191.639 103.493 190.117 103.165 188.46C102.837 186.804 103.008 185.087 103.656 183.528C104.304 181.968 105.4 180.636 106.805 179.7C108.211 178.764 109.862 178.265 111.551 178.268C113.812 178.272 115.98 179.172 117.578 180.773C119.175 182.373 120.073 184.542 120.073 186.803Z" fill="white"/>
<path d="M120.073 225.396C120.073 227.085 119.572 228.736 118.633 230.14C117.695 231.544 116.361 232.638 114.801 233.283C113.24 233.929 111.524 234.097 109.868 233.767C108.212 233.436 106.691 232.622 105.498 231.427C104.305 230.232 103.493 228.71 103.165 227.053C102.837 225.397 103.008 223.68 103.656 222.121C104.304 220.562 105.4 219.23 106.805 218.293C108.211 217.357 109.862 216.859 111.551 216.861C113.812 216.865 115.98 217.766 117.578 219.366C119.175 220.966 120.073 223.135 120.073 225.396Z" fill="#3399CC"/>
<path opacity="0.4" d="M120.073 225.396C120.073 227.085 119.572 228.736 118.633 230.14C117.695 231.544 116.361 232.638 114.801 233.283C113.24 233.929 111.524 234.097 109.868 233.767C108.212 233.436 106.691 232.622 105.498 231.427C104.305 230.232 103.493 228.71 103.165 227.053C102.837 225.397 103.008 223.68 103.656 222.121C104.304 220.562 105.4 219.23 106.805 218.293C108.211 217.357 109.862 216.859 111.551 216.861C113.812 216.865 115.98 217.766 117.578 219.366C119.175 220.966 120.073 223.135 120.073 225.396Z" fill="white"/>
<path d="M100.783 263.857C100.783 265.546 100.282 267.197 99.3434 268.601C98.4049 270.005 97.0711 271.099 95.5108 271.744C93.9504 272.39 92.2336 272.558 90.5776 272.228C88.9215 271.897 87.4008 271.083 86.2076 269.888C85.0145 268.693 84.2026 267.171 83.8748 265.514C83.547 263.858 83.7179 262.141 84.3659 260.582C85.0139 259.023 86.11 257.691 87.5153 256.754C88.9206 255.818 90.5721 255.32 92.2608 255.322C94.5222 255.326 96.6897 256.227 98.2875 257.827C99.8853 259.427 100.783 261.596 100.783 263.857Z" fill="#3399CC"/>
<path opacity="0.4" d="M100.783 263.857C100.783 265.546 100.282 267.197 99.3434 268.601C98.4049 270.005 97.0711 271.099 95.5108 271.744C93.9504 272.39 92.2336 272.558 90.5776 272.228C88.9215 271.897 87.4008 271.083 86.2076 269.888C85.0145 268.693 84.2026 267.171 83.8748 265.514C83.547 263.858 83.7179 262.141 84.3659 260.582C85.0139 259.023 86.11 257.691 87.5153 256.754C88.9206 255.818 90.5721 255.32 92.2608 255.322C94.5222 255.326 96.6897 256.227 98.2875 257.827C99.8853 259.427 100.783 261.596 100.783 263.857Z" fill="white"/>
<path d="M120.073 302.385C120.073 304.073 119.572 305.724 118.633 307.128C117.695 308.532 116.361 309.626 114.801 310.271C113.24 310.917 111.524 311.085 109.868 310.755C108.212 310.424 106.691 309.61 105.498 308.415C104.305 307.22 103.493 305.698 103.165 304.042C102.837 302.385 103.008 300.668 103.656 299.109C104.304 297.55 105.4 296.218 106.805 295.281C108.211 294.345 109.862 293.847 111.551 293.849C113.812 293.853 115.98 294.754 117.578 296.354C119.175 297.954 120.073 300.123 120.073 302.385Z" fill="#3399CC"/>
<path opacity="0.4" d="M120.073 302.385C120.073 304.073 119.572 305.724 118.633 307.128C117.695 308.532 116.361 309.626 114.801 310.271C113.24 310.917 111.524 311.085 109.868 310.755C108.212 310.424 106.691 309.61 105.498 308.415C104.305 307.22 103.493 305.698 103.165 304.042C102.837 302.385 103.008 300.668 103.656 299.109C104.304 297.55 105.4 296.218 106.805 295.281C108.211 294.345 109.862 293.847 111.551 293.849C113.812 293.853 115.98 294.754 117.578 296.354C119.175 297.954 120.073 300.123 120.073 302.385Z" fill="white"/>
<path d="M120.073 340.912C120.075 342.601 119.577 344.253 118.64 345.659C117.703 347.064 116.37 348.16 114.81 348.808C113.25 349.455 111.533 349.626 109.876 349.297C108.219 348.968 106.697 348.155 105.502 346.96C104.308 345.766 103.495 344.244 103.166 342.587C102.837 340.93 103.007 339.213 103.655 337.653C104.302 336.092 105.398 334.76 106.804 333.823C108.21 332.886 109.862 332.387 111.551 332.39C113.81 332.393 115.975 333.292 117.573 334.89C119.17 336.487 120.069 338.653 120.073 340.912Z" fill="#3399CC"/>
<path opacity="0.4" d="M120.073 340.912C120.075 342.601 119.577 344.253 118.64 345.659C117.703 347.064 116.37 348.16 114.81 348.808C113.25 349.455 111.533 349.626 109.876 349.297C108.219 348.968 106.697 348.155 105.502 346.96C104.308 345.766 103.495 344.244 103.166 342.587C102.837 340.93 103.007 339.213 103.655 337.653C104.302 336.092 105.398 334.76 106.804 333.823C108.21 332.886 109.862 332.387 111.551 332.39C113.81 332.393 115.975 333.292 117.573 334.89C119.17 336.487 120.069 338.653 120.073 340.912Z" fill="white"/>
<path d="M120.073 379.439C120.075 381.128 119.577 382.78 118.64 384.186C117.703 385.591 116.37 386.687 114.81 387.335C113.25 387.983 111.533 388.153 109.876 387.824C108.219 387.495 106.697 386.682 105.502 385.487C104.308 384.293 103.495 382.771 103.166 381.114C102.837 379.457 103.007 377.74 103.655 376.18C104.302 374.62 105.398 373.287 106.804 372.35C108.21 371.413 109.862 370.914 111.551 370.917C113.81 370.92 115.975 371.819 117.573 373.417C119.17 375.014 120.069 377.18 120.073 379.439Z" fill="#3399CC"/>
<path opacity="0.4" d="M120.073 379.439C120.075 381.128 119.577 382.78 118.64 384.186C117.703 385.591 116.37 386.687 114.81 387.335C113.25 387.983 111.533 388.153 109.876 387.824C108.219 387.495 106.697 386.682 105.502 385.487C104.308 384.293 103.495 382.771 103.166 381.114C102.837 379.457 103.007 377.74 103.655 376.18C104.302 374.62 105.398 373.287 106.804 372.35C108.21 371.413 109.862 370.914 111.551 370.917C113.81 370.92 115.975 371.819 117.573 373.417C119.17 375.014 120.069 377.18 120.073 379.439Z" fill="white"/>
<path d="M120.073 417.979C120.073 419.668 119.572 421.319 118.633 422.722C117.695 424.126 116.361 425.22 114.801 425.866C113.24 426.512 111.524 426.68 109.868 426.349C108.212 426.019 106.691 425.205 105.498 424.01C104.305 422.815 103.493 421.293 103.165 419.636C102.837 417.98 103.008 416.263 103.656 414.704C104.304 413.144 105.4 411.812 106.805 410.876C108.211 409.94 109.862 409.441 111.551 409.444C112.671 409.444 113.78 409.665 114.815 410.094C115.85 410.523 116.79 411.152 117.581 411.945C118.373 412.737 119 413.679 119.428 414.714C119.855 415.749 120.075 416.859 120.073 417.979Z" fill="#3399CC"/>
<path opacity="0.4" d="M120.073 417.979C120.073 419.668 119.572 421.319 118.633 422.722C117.695 424.126 116.361 425.22 114.801 425.866C113.24 426.512 111.524 426.68 109.868 426.349C108.212 426.019 106.691 425.205 105.498 424.01C104.305 422.815 103.493 421.293 103.165 419.636C102.837 417.98 103.008 416.263 103.656 414.704C104.304 413.144 105.4 411.812 106.805 410.876C108.211 409.94 109.862 409.441 111.551 409.444C112.671 409.444 113.78 409.665 114.815 410.094C115.85 410.523 116.79 411.152 117.581 411.945C118.373 412.737 119 413.679 119.428 414.714C119.855 415.749 120.075 416.859 120.073 417.979Z" fill="white"/>
<path d="M120.073 456.506C120.073 458.195 119.572 459.846 118.633 461.25C117.695 462.653 116.361 463.747 114.801 464.393C113.24 465.039 111.524 465.207 109.868 464.876C108.212 464.546 106.691 463.732 105.498 462.537C104.305 461.342 103.493 459.82 103.165 458.163C102.837 456.507 103.008 454.79 103.656 453.231C104.304 451.672 105.4 450.339 106.805 449.403C108.211 448.467 109.862 447.969 111.551 447.971C112.671 447.971 113.78 448.192 114.815 448.621C115.85 449.05 116.79 449.679 117.581 450.472C118.373 451.265 119 452.206 119.428 453.241C119.855 454.276 120.075 455.386 120.073 456.506Z" fill="#3399CC"/>
<path opacity="0.4" d="M120.073 456.506C120.073 458.195 119.572 459.846 118.633 461.25C117.695 462.653 116.361 463.747 114.801 464.393C113.24 465.039 111.524 465.207 109.868 464.876C108.212 464.546 106.691 463.732 105.498 462.537C104.305 461.342 103.493 459.82 103.165 458.163C102.837 456.507 103.008 454.79 103.656 453.231C104.304 451.672 105.4 450.339 106.805 449.403C108.211 448.467 109.862 447.969 111.551 447.971C112.671 447.971 113.78 448.192 114.815 448.621C115.85 449.05 116.79 449.679 117.581 450.472C118.373 451.265 119 452.206 119.428 453.241C119.855 454.276 120.075 455.386 120.073 456.506Z" fill="white"/>
<path d="M237.411 136.187C236.842 133.004 235.576 129.985 233.706 127.348C231.835 124.71 229.406 122.517 226.59 120.927C226.59 120.755 226.59 120.583 226.59 120.411C226.59 114.563 224.267 108.954 220.132 104.819C215.996 100.683 210.387 98.36 204.539 98.36H196.083V100.038C193.291 101.205 190.768 102.933 188.67 105.115C186.572 107.297 184.945 109.886 183.888 112.722C183.164 112.596 182.43 112.53 181.695 112.524C179.057 112.528 176.481 113.322 174.298 114.803C172.115 116.284 170.426 118.385 169.447 120.834C166.421 120.101 163.242 120.337 160.357 121.508C157.443 122.642 154.923 124.603 153.108 127.15C151.294 129.697 150.263 132.718 150.144 135.843C150.098 137.944 150.472 140.032 151.245 141.986C152.017 143.94 153.172 145.72 154.641 147.221C156.111 148.723 157.865 149.915 159.802 150.73C161.739 151.544 163.818 151.963 165.919 151.962H225.652C228.806 151.994 231.845 150.782 234.11 148.588C236.376 146.394 237.685 143.396 237.755 140.243V140.111C237.762 138.795 237.647 137.481 237.411 136.187Z" fill="#3399CC"/>
<path d="M228.969 136.186C228.403 133.007 227.144 129.991 225.281 127.353C223.417 124.715 220.995 122.521 218.187 120.926C218.187 120.754 218.187 120.582 218.187 120.411C218.185 115.241 216.367 110.237 213.051 106.272C209.734 102.307 205.13 99.6325 200.043 98.7166C194.955 97.8008 189.708 98.7014 185.217 101.261C180.726 103.821 177.276 107.877 175.472 112.721C172.5 112.197 169.438 112.719 166.808 114.198C164.177 115.677 162.141 118.022 161.044 120.834C158.018 120.101 154.839 120.336 151.954 121.507C149.039 122.641 146.52 124.602 144.705 127.149C142.891 129.696 141.86 132.718 141.741 135.843C141.693 137.942 142.066 140.031 142.837 141.984C143.608 143.938 144.761 145.718 146.229 147.22C147.698 148.721 149.452 149.914 151.388 150.729C153.324 151.543 155.403 151.962 157.503 151.962H217.249C220.402 151.99 223.439 150.777 225.704 148.584C227.968 146.391 229.279 143.394 229.352 140.242V140.11C229.346 138.793 229.218 137.48 228.969 136.186Z" fill="#3399CC"/>
<path opacity="0.3" d="M228.969 136.186C228.403 133.007 227.144 129.991 225.281 127.353C223.417 124.715 220.995 122.521 218.187 120.926C218.187 120.754 218.187 120.582 218.187 120.411C218.185 115.241 216.367 110.237 213.051 106.272C209.734 102.307 205.13 99.6325 200.043 98.7166C194.955 97.8008 189.708 98.7014 185.217 101.261C180.726 103.821 177.276 107.877 175.472 112.721C172.5 112.197 169.438 112.719 166.808 114.198C164.177 115.677 162.141 118.022 161.044 120.834C158.018 120.101 154.839 120.336 151.954 121.507C149.039 122.641 146.52 124.602 144.705 127.149C142.891 129.696 141.86 132.718 141.741 135.843C141.693 137.942 142.066 140.031 142.837 141.984C143.608 143.938 144.761 145.718 146.229 147.22C147.698 148.721 149.452 149.914 151.388 150.729C153.324 151.543 155.403 151.962 157.503 151.962H217.249C220.402 151.99 223.439 150.777 225.704 148.584C227.968 146.391 229.279 143.394 229.352 140.242V140.11C229.346 138.793 229.218 137.48 228.969 136.186Z" fill="white"/>
<path d="M197.721 84.4474H196.612V87.7637H197.721V84.4474Z" fill="#3399CC"/>
<path opacity="0.2" d="M197.721 84.4474H196.612V87.7637H197.721V84.4474Z" fill="black"/>
<path d="M353.31 159.784H352.496V153.178H353.31V159.784ZM353.31 146.572H352.496V139.966H353.31V146.572ZM353.31 133.359H352.496V126.753H353.31V133.359ZM353.31 120.147H352.496V113.541H353.31V120.147ZM353.31 106.935H352.496V100.329H353.31V106.935ZM353.31 93.7225H352.496V87.1163H353.31V93.7225ZM353.31 80.5101H352.496V73.904H353.31V80.5101ZM197.426 77.762H196.612V73.3094C196.611 72.6031 196.64 71.8973 196.699 71.1955L197.503 71.3276C197.453 71.986 197.427 72.6475 197.426 73.3094V77.762ZM351.788 67.6149C351.267 65.6031 350.468 63.7463 349.434 62.145L350.035 61.5637C351.142 63.2716 351.997 65.2543 352.554 67.4035L351.788 67.6149ZM198.918 65.2763L198.21 64.7479C199.007 62.7282 200.079 60.9345 201.369 59.4629L201.893 60.3217C200.675 61.6945 199.664 63.3773 198.918 65.2763ZM345.742 58.3531C344.361 57.3918 342.858 56.8041 341.313 56.6223L341.381 55.5124C343.046 55.7052 344.668 56.3332 346.158 57.3622L345.742 58.3531ZM205.972 57.3357L205.73 56.292C207.018 55.7319 208.361 55.4467 209.713 55.4464H210.633V56.5562H209.713C208.444 56.5549 207.183 56.8178 205.972 57.3357ZM336.468 56.5562H331.623V55.4464H336.468V56.5562ZM326.778 56.5562H321.933V55.4464H326.778V56.5562ZM317.088 56.5562H312.243V55.4464H317.088V56.5562ZM307.398 56.5562H302.553V55.4464H307.398V56.5562ZM297.708 56.5562H292.863V55.4464H297.708V56.5562ZM288.018 56.5562H283.173V55.4464H288.018V56.5562ZM278.328 56.5562H273.483V55.4464H278.328V56.5562ZM268.638 56.5562H263.793V55.4464H268.638V56.5562ZM258.948 56.5562H254.103V55.4464H258.948V56.5562ZM249.258 56.5562H244.413V55.4464H249.258V56.5562ZM239.568 56.5562H234.723V55.4464H239.568V56.5562ZM229.878 56.5562H225.033V55.4464H229.878V56.5562ZM220.188 56.5562H215.342V55.4464H220.188V56.5562Z" fill="#3399CC"/>
<path opacity="0.2" d="M353.31 159.784H352.496V153.178H353.31V159.784ZM353.31 146.572H352.496V139.966H353.31V146.572ZM353.31 133.359H352.496V126.753H353.31V133.359ZM353.31 120.147H352.496V113.541H353.31V120.147ZM353.31 106.935H352.496V100.329H353.31V106.935ZM353.31 93.7225H352.496V87.1163H353.31V93.7225ZM353.31 80.5101H352.496V73.904H353.31V80.5101ZM197.426 77.762H196.612V73.3094C196.611 72.6031 196.64 71.8973 196.699 71.1955L197.503 71.3276C197.453 71.986 197.427 72.6475 197.426 73.3094V77.762ZM351.788 67.6149C351.267 65.6031 350.468 63.7463 349.434 62.145L350.035 61.5637C351.142 63.2716 351.997 65.2543 352.554 67.4035L351.788 67.6149ZM198.918 65.2763L198.21 64.7479C199.007 62.7282 200.079 60.9345 201.369 59.4629L201.893 60.3217C200.675 61.6945 199.664 63.3773 198.918 65.2763ZM345.742 58.3531C344.361 57.3918 342.858 56.8041 341.313 56.6223L341.381 55.5124C343.046 55.7052 344.668 56.3332 346.158 57.3622L345.742 58.3531ZM205.972 57.3357L205.73 56.292C207.018 55.7319 208.361 55.4467 209.713 55.4464H210.633V56.5562H209.713C208.444 56.5549 207.183 56.8178 205.972 57.3357ZM336.468 56.5562H331.623V55.4464H336.468V56.5562ZM326.778 56.5562H321.933V55.4464H326.778V56.5562ZM317.088 56.5562H312.243V55.4464H317.088V56.5562ZM307.398 56.5562H302.553V55.4464H307.398V56.5562ZM297.708 56.5562H292.863V55.4464H297.708V56.5562ZM288.018 56.5562H283.173V55.4464H288.018V56.5562ZM278.328 56.5562H273.483V55.4464H278.328V56.5562ZM268.638 56.5562H263.793V55.4464H268.638V56.5562ZM258.948 56.5562H254.103V55.4464H258.948V56.5562ZM249.258 56.5562H244.413V55.4464H249.258V56.5562ZM239.568 56.5562H234.723V55.4464H239.568V56.5562ZM229.878 56.5562H225.033V55.4464H229.878V56.5562ZM220.188 56.5562H215.342V55.4464H220.188V56.5562Z" fill="black"/>
<path d="M410.268 166.417H409.158V169.733H410.268V166.417Z" fill="#3399CC"/>
<path opacity="0.2" d="M410.268 166.417H409.158V169.733H410.268V166.417Z" fill="black"/>
<path d="M433.192 485.203H423.481L422.437 462.729H432.148L433.192 485.203Z" fill="#E4897B"/>
<path d="M423.15 484.08H433.72C433.912 484.08 434.098 484.148 434.245 484.271C434.393 484.394 434.492 484.565 434.526 484.754L436.098 493.382C436.135 493.593 436.125 493.81 436.069 494.017C436.012 494.224 435.911 494.416 435.773 494.58C435.634 494.744 435.461 494.875 435.267 494.965C435.072 495.055 434.859 495.101 434.645 495.1C430.827 495.033 425.304 494.809 420.494 494.809C414.879 494.809 414.086 495.126 407.507 495.126C403.543 495.126 402.552 491.162 404.23 490.726C411.893 489.061 414.02 488.89 420.732 484.847C421.449 484.366 422.288 484.101 423.15 484.08Z" fill="#263238"/>
<path d="M422.45 462.743L422.978 474.316H432.689L432.148 462.743H422.45Z" fill="#CE6F64"/>
<path d="M368.134 162.136C368.319 165.188 368.531 168.531 368.623 171.728C368.716 174.925 368.782 178.176 368.742 181.36C368.702 184.544 368.583 187.715 368.306 190.754C368.094 193.621 367.63 196.464 366.919 199.249C366.648 200.31 366.263 201.338 365.769 202.315C365.624 202.609 365.457 202.892 365.267 203.16L364.673 204.125C364.289 204.759 363.827 205.446 363.351 206.054C361.62 208.63 359.705 211.193 357.723 213.77C353.759 218.856 349.439 223.996 345.198 229.03L350.258 234.936C356.11 231.134 361.623 226.832 366.734 222.08C369.356 219.659 371.843 217.097 374.185 214.404C374.78 213.704 375.388 213.083 375.943 212.29L376.801 211.18C377.136 210.762 377.441 210.32 377.713 209.859C378.962 207.954 379.973 205.904 380.726 203.755C381.975 200.094 382.861 196.319 383.368 192.485C383.91 188.851 384.148 185.271 384.332 181.73C384.517 178.189 384.504 174.661 384.332 171.16C384.161 167.659 384.055 164.237 383.659 160.59L368.134 162.136Z" fill="#E4897B"/>
<path d="M364.752 182.034L368.874 183.685L375.81 186.447L388.124 191.375C388.124 191.375 393.74 162.162 390.767 153.284C387.437 143.533 375.678 143.758 369.323 154.869C363.034 165.703 364.752 182.034 364.752 182.034Z" fill="#3399CC"/>
<path opacity="0.6" d="M364.752 182.034L368.874 183.685L375.81 186.447L388.124 191.375C388.124 191.375 393.74 162.162 390.767 153.284C387.437 143.533 375.678 143.758 369.323 154.869C363.034 165.703 364.752 182.034 364.752 182.034Z" fill="white"/>
<path d="M369.429 183.923L375.758 186.447C376.815 181.862 377.792 174.186 374.661 168.438C370.38 172.019 369.72 179.246 369.429 183.923Z" fill="#3399CC"/>
<path opacity="0.4" d="M369.429 183.923L375.758 186.447C376.815 181.862 377.792 174.186 374.661 168.438C370.38 172.019 369.72 179.246 369.429 183.923Z" fill="white"/>
<path d="M375.718 224.511H428.845C429.228 219.742 428.025 206.82 428.845 189.221C429.03 185.165 429.32 180.871 429.756 176.366C430.726 166.131 432.412 155.976 434.803 145.977C428.958 144.839 423.043 144.089 417.099 143.731C409.574 143.295 402.03 143.295 394.506 143.731C389.303 144.258 384.151 145.204 379.1 146.559C379.1 146.559 366.588 168.663 375.718 224.511Z" fill="#3399CC"/>
<path opacity="0.6" d="M375.718 224.511H428.845C429.228 219.742 428.025 206.82 428.845 189.221C429.03 185.165 429.32 180.871 429.756 176.366C430.726 166.131 432.412 155.976 434.803 145.977C428.958 144.839 423.043 144.089 417.099 143.731C409.574 143.295 402.03 143.295 394.506 143.731C389.303 144.258 384.151 145.204 379.1 146.559C379.1 146.559 366.588 168.663 375.718 224.511Z" fill="white"/>
<path d="M428.818 189.221C429.003 185.165 429.294 180.871 429.73 176.366C428.012 175.295 425.766 175.229 425.304 181.518C424.881 187.332 426.85 188.944 428.818 189.221Z" fill="#3399CC"/>
<path opacity="0.4" d="M428.818 189.221C429.003 185.165 429.294 180.871 429.73 176.366C428.012 175.295 425.766 175.229 425.304 181.518C424.881 187.332 426.85 188.944 428.818 189.221Z" fill="white"/>
<path d="M330.175 236.112L337.838 240.881L347.298 238.86L339.767 229.519L330.175 236.112Z" fill="#E4897B"/>
<path d="M348.619 228.039L339.767 229.466L347.298 238.807C347.298 238.807 352.028 238.331 353.31 231.937L348.619 228.039Z" fill="#E4897B"/>
<path d="M415.738 118.297C414.06 125.564 412.157 138.882 417.059 143.731C417.059 143.731 414.589 148.606 401.086 148.606C388.758 148.606 394.479 143.731 394.479 143.731C402.658 141.789 402.658 135.804 401.455 130.136L415.738 118.297Z" fill="#E4897B"/>
<path d="M409.911 123.133L401.456 130.136C401.76 131.437 401.946 132.764 402.01 134.099C404.587 136.61 409.502 130.255 409.938 127.018C410.16 125.731 410.151 124.416 409.911 123.133Z" fill="#CE6F64"/>
<path d="M386.895 99.8795C383.513 104.081 387.464 117.32 394.466 117.055C401.469 116.791 393.317 91.8464 386.895 99.8795Z" fill="#263238"/>
<path d="M414.298 106.221C415.064 116.025 416.002 121.693 411.774 127.533C410.416 129.445 408.565 130.954 406.418 131.899C404.271 132.844 401.908 133.19 399.58 132.9C397.252 132.61 395.047 131.695 393.197 130.252C391.348 128.81 389.923 126.893 389.076 124.705C385.759 116.368 385.112 101.756 394.083 96.2328C395.987 94.976 398.186 94.24 400.463 94.0979C402.739 93.9559 405.013 94.4129 407.058 95.4233C409.103 96.4338 410.848 97.9624 412.118 99.857C413.388 101.752 414.14 103.946 414.298 106.221Z" fill="#E4897B"/>
<path d="M417.839 93.8943L407.269 97.6466C411.906 103.843 405.168 118.456 413.36 115.721C417.112 114.479 429.347 100.95 417.839 93.8943Z" fill="#263238"/>
<path d="M412.712 96.4311C408.749 99.3642 392.484 102.852 383.196 97.673C385.108 97.1683 386.963 96.4688 388.732 95.5855C388.732 95.5855 381.782 95.2552 378.704 90.1156C383.024 90.8475 387.464 90.2868 391.467 88.5037C389.93 88.0496 388.504 87.2791 387.282 86.2415C386.061 85.204 385.069 83.9223 384.372 82.4789C397.201 82.6374 424.828 85.2402 420.045 94.2642C415.262 103.288 412.712 96.4311 412.712 96.4311Z" fill="#263238"/>
<path d="M418.262 95.242C420.209 94.3146 421.976 93.0485 423.48 91.5029C424.088 93.0223 424.088 97.1313 418.262 95.242Z" fill="#263238"/>
<path d="M420.243 116.131C419.201 118.442 417.308 120.264 414.958 121.217C411.88 122.472 410.07 119.896 410.704 116.778C411.272 114.017 413.558 110.04 416.755 110.093C419.953 110.145 421.433 113.316 420.243 116.131Z" fill="#E4897B"/>
<path d="M403.398 485.203H393.7L391.692 462.729H401.389L403.398 485.203Z" fill="#E4897B"/>
<path d="M393.251 484.08H403.821C404.013 484.078 404.201 484.144 404.348 484.268C404.496 484.392 404.595 484.564 404.626 484.754L406.238 493.382C406.275 493.593 406.265 493.81 406.209 494.017C406.153 494.224 406.052 494.416 405.913 494.58C405.774 494.744 405.602 494.875 405.407 494.965C405.212 495.055 405 495.101 404.785 495.099C400.953 495.033 395.444 494.809 390.635 494.809C385.019 494.809 380.144 495.126 373.564 495.126C369.601 495.126 368.61 491.162 370.301 490.726C377.951 489.061 384.161 488.89 390.859 484.847C391.569 484.373 392.398 484.108 393.251 484.08Z" fill="#263238"/>
<path d="M391.692 462.743L392.722 474.316H402.433L401.403 462.743H391.692Z" fill="#CE6F64"/>
<path d="M389.194 485.573C388.539 485.733 387.849 485.663 387.239 485.375C387.04 485.254 386.877 485.083 386.766 484.879C386.654 484.675 386.599 484.445 386.605 484.212C386.589 484.076 386.61 483.938 386.666 483.812C386.721 483.687 386.81 483.579 386.922 483.499C387.939 482.772 391.361 484.212 391.758 484.384C391.797 484.404 391.83 484.434 391.854 484.471C391.877 484.509 391.889 484.552 391.89 484.596C391.885 484.644 391.868 484.69 391.84 484.729C391.812 484.768 391.775 484.8 391.731 484.82C390.914 485.16 390.064 485.412 389.194 485.573ZM387.477 483.776C387.373 483.787 387.273 483.823 387.186 483.882C387.12 483.882 387.067 483.988 387.067 484.173C387.065 484.33 387.102 484.485 387.176 484.624C387.25 484.763 387.358 484.88 387.49 484.966C388.67 485.295 389.932 485.163 391.018 484.596C389.903 484.093 388.7 483.814 387.477 483.776Z" fill="#3399CC"/>
<path d="M391.678 484.834H391.559C390.476 484.437 388.243 482.601 388.309 481.478C388.325 481.299 388.399 481.13 388.521 480.998C388.643 480.867 388.806 480.78 388.983 480.751C389.155 480.699 389.336 480.685 389.514 480.71C389.692 480.736 389.863 480.799 390.014 480.896C391.335 481.649 391.863 484.437 391.877 484.556C391.885 484.62 391.869 484.686 391.833 484.739C391.796 484.793 391.741 484.831 391.678 484.847V484.834ZM389.208 481.16H389.102C388.798 481.253 388.785 481.385 388.785 481.451C388.785 482.112 390.199 483.539 391.308 484.094C391.097 482.995 390.558 481.986 389.763 481.2C389.587 481.126 389.392 481.112 389.208 481.16Z" fill="#3399CC"/>
<path d="M406.093 471.542H390.238C390.238 471.542 365.914 378.633 366.377 347.122C366.839 316.812 375.625 224.511 375.625 224.511H410.638C410.638 224.511 407.93 245.043 404.838 270.371C402.076 292.726 399.038 318.847 397.294 337.873C396.792 343.528 396.382 348.548 396.144 352.671C394.334 383.614 406.093 471.542 406.093 471.542Z" fill="#3399CC"/>
<path opacity="0.3" d="M406.093 471.542H390.238C390.238 471.542 365.914 378.633 366.377 347.122C366.839 316.812 375.625 224.511 375.625 224.511H410.638C410.638 224.511 407.93 245.043 404.838 270.371C402.076 292.726 399.038 318.847 397.294 337.873C396.792 343.528 396.382 348.548 396.144 352.671C394.334 383.614 406.093 471.542 406.093 471.542Z" fill="black"/>
<path d="M404.838 270.318C402.077 292.674 399.038 318.794 397.294 337.82C393.607 321.212 384.61 272.934 398.113 248.518C401.495 253.393 403.556 261.73 404.838 270.318Z" fill="#3399CC"/>
<path opacity="0.4" d="M404.838 270.318C402.077 292.674 399.038 318.794 397.294 337.82C393.607 321.212 384.61 272.934 398.113 248.518C401.495 253.393 403.556 261.73 404.838 270.318Z" fill="black"/>
<path d="M394.559 224.511C394.559 224.511 395.88 313.523 401.046 341.956C406.701 373.097 417.958 471.542 417.958 471.542H436.098C436.098 471.542 433.456 375.607 430.681 344.783C427.695 311.316 428.792 224.551 428.792 224.551L394.559 224.511Z" fill="#3399CC"/>
<path opacity="0.3" d="M394.559 224.511C394.559 224.511 395.88 313.523 401.046 341.956C406.701 373.097 417.958 471.542 417.958 471.542H436.098C436.098 471.542 433.456 375.607 430.681 344.783C427.695 311.316 428.792 224.551 428.792 224.551L394.559 224.511Z" fill="black"/>
<path d="M436.838 471.938H417.244L415.804 464.539L437.512 463.932L436.838 471.938Z" fill="#263238"/>
<path d="M406.991 471.938H387.398L385.944 464.539L407.586 464.923L406.991 471.938Z" fill="#263238"/>
<path d="M429.201 460.8C429.223 460.799 429.245 460.793 429.265 460.782C429.284 460.772 429.301 460.757 429.315 460.74C429.329 460.723 429.339 460.702 429.344 460.681C429.35 460.66 429.35 460.637 429.347 460.615C429.228 459.69 427.867 373.599 425.383 345.906C422.741 315.848 424.379 236.098 424.326 235.425C424.319 235.381 424.297 235.342 424.262 235.315C424.228 235.288 424.185 235.275 424.141 235.279C424.097 235.286 424.056 235.308 424.027 235.342C423.998 235.376 423.982 235.419 423.982 235.464C423.982 236.138 422.357 315.888 425.053 345.946C427.523 373.691 428.884 459.743 429.016 460.668C429.026 460.709 429.05 460.745 429.084 460.769C429.118 460.794 429.16 460.805 429.201 460.8Z" fill="#3399CC"/>
<path opacity="0.3" d="M429.201 460.8C429.223 460.799 429.245 460.793 429.265 460.782C429.284 460.772 429.301 460.757 429.315 460.74C429.329 460.723 429.339 460.702 429.344 460.681C429.35 460.66 429.35 460.637 429.347 460.615C429.228 459.69 427.867 373.599 425.383 345.906C422.741 315.848 424.379 236.098 424.326 235.425C424.319 235.381 424.297 235.342 424.262 235.315C424.228 235.288 424.185 235.275 424.141 235.279C424.097 235.286 424.056 235.308 424.027 235.342C423.998 235.376 423.982 235.419 423.982 235.464C423.982 236.138 422.357 315.888 425.053 345.946C427.523 373.691 428.884 459.743 429.016 460.668C429.026 460.709 429.05 460.745 429.084 460.769C429.118 460.794 429.16 460.805 429.201 460.8Z" fill="white"/>
<path d="M399.883 111.612C400.002 112.391 399.672 113.105 399.143 113.197C398.615 113.29 398.113 112.722 398.007 111.876C397.901 111.031 398.232 110.37 398.747 110.278C399.262 110.185 399.778 110.819 399.883 111.612Z" fill="#263238"/>
<path d="M390.727 112.709C390.833 113.501 390.502 114.202 389.987 114.294C389.472 114.387 388.957 113.818 388.851 112.973C388.745 112.127 389.075 111.467 389.591 111.374C390.106 111.282 390.621 111.916 390.727 112.709Z" fill="#263238"/>
<path d="M393.819 112.986C393.201 115.573 392.241 118.065 390.965 120.398C391.576 120.681 392.241 120.828 392.914 120.828C393.587 120.828 394.252 120.681 394.863 120.398L393.819 112.986Z" fill="#DE5753"/>
<path d="M396.461 123.662C396.431 123.667 396.399 123.667 396.369 123.659C396.339 123.652 396.311 123.639 396.286 123.62C396.261 123.602 396.24 123.578 396.225 123.551C396.21 123.524 396.2 123.494 396.197 123.463C396.193 123.401 396.212 123.339 396.252 123.29C396.291 123.241 396.347 123.209 396.408 123.199C397.414 123.086 398.38 122.744 399.232 122.199C400.084 121.654 400.8 120.92 401.323 120.055C401.336 120.026 401.354 120 401.378 119.978C401.401 119.957 401.428 119.941 401.458 119.931C401.488 119.921 401.52 119.918 401.551 119.921C401.583 119.924 401.613 119.933 401.64 119.949C401.668 119.962 401.692 119.98 401.712 120.002C401.732 120.024 401.748 120.05 401.757 120.079C401.767 120.107 401.771 120.137 401.769 120.167C401.768 120.197 401.76 120.226 401.746 120.253C401.19 121.192 400.424 121.99 399.506 122.581C398.589 123.173 397.546 123.543 396.461 123.662Z" fill="#263238"/>
<path d="M402.301 105.904C402.231 105.924 402.158 105.927 402.087 105.913C402.016 105.9 401.949 105.869 401.891 105.825C401.441 105.449 400.908 105.187 400.335 105.061C399.763 104.934 399.168 104.947 398.602 105.098C398.544 105.119 398.482 105.128 398.42 105.124C398.359 105.121 398.299 105.105 398.243 105.078C398.188 105.051 398.138 105.013 398.098 104.967C398.057 104.92 398.026 104.866 398.007 104.808C397.973 104.685 397.987 104.554 398.046 104.441C398.105 104.328 398.204 104.242 398.324 104.2C399.038 104.001 399.789 103.978 400.514 104.132C401.238 104.286 401.915 104.613 402.486 105.085C402.536 105.122 402.578 105.17 402.609 105.224C402.64 105.278 402.659 105.339 402.665 105.401C402.671 105.463 402.664 105.526 402.645 105.585C402.625 105.645 402.594 105.699 402.552 105.746C402.486 105.822 402.398 105.877 402.301 105.904Z" fill="#263238"/>
<path d="M426.955 144.18L424.458 143.956C424.336 143.951 424.217 143.988 424.118 144.06C424.02 144.132 423.949 144.235 423.916 144.352C415.593 181.835 418.09 221.631 418.09 221.631H420.851C420.273 195.861 422.461 170.104 427.378 144.801C427.407 144.732 427.418 144.658 427.41 144.583C427.402 144.509 427.376 144.438 427.334 144.377C427.292 144.315 427.236 144.265 427.17 144.231C427.103 144.196 427.03 144.179 426.955 144.18Z" fill="#3399CC"/>
<path opacity="0.1" d="M426.955 144.18L424.458 143.956C424.336 143.951 424.217 143.988 424.118 144.06C424.02 144.132 423.949 144.235 423.916 144.352C415.593 181.835 418.09 221.631 418.09 221.631H420.851C420.273 195.861 422.461 170.104 427.378 144.801C427.407 144.732 427.418 144.658 427.41 144.583C427.402 144.509 427.376 144.438 427.334 144.377C427.292 144.315 427.236 144.265 427.17 144.231C427.103 144.196 427.03 144.179 426.955 144.18Z" fill="white"/>
<path d="M420.336 222.516H418.42C418.304 222.518 418.189 222.496 418.081 222.452C417.974 222.408 417.876 222.343 417.795 222.26C417.713 222.177 417.649 222.079 417.607 221.971C417.564 221.863 417.544 221.747 417.548 221.631C417.561 221.39 417.666 221.163 417.84 220.997C418.014 220.83 418.245 220.735 418.486 220.733H420.389C420.505 220.732 420.621 220.756 420.729 220.801C420.836 220.847 420.934 220.913 421.015 220.997C421.096 221.081 421.16 221.18 421.202 221.289C421.244 221.398 421.264 221.514 421.261 221.631C421.247 221.868 421.144 222.092 420.973 222.256C420.801 222.42 420.573 222.513 420.336 222.516Z" fill="#263238"/>
<path d="M418.116 224.855L418.209 222.344C418.222 222.031 418.356 221.735 418.583 221.519C418.809 221.302 419.111 221.181 419.424 221.182C419.576 221.18 419.726 221.209 419.866 221.267C420.005 221.325 420.132 221.411 420.237 221.52C420.342 221.629 420.424 221.759 420.477 221.9C420.531 222.042 420.555 222.193 420.547 222.344L420.455 224.855C420.441 225.166 420.309 225.459 420.085 225.676C419.862 225.892 419.564 226.014 419.253 226.017C419.101 226.017 418.951 225.987 418.811 225.928C418.672 225.87 418.545 225.784 418.44 225.675C418.334 225.567 418.251 225.439 418.195 225.298C418.14 225.157 418.113 225.006 418.116 224.855Z" fill="#263238"/>
<path d="M386.592 107.952C386.523 107.972 386.449 107.972 386.38 107.952C386.321 107.936 386.266 107.907 386.218 107.869C386.17 107.83 386.131 107.782 386.102 107.727C386.074 107.673 386.057 107.613 386.052 107.552C386.048 107.49 386.056 107.429 386.076 107.371C386.284 106.642 386.66 105.971 387.174 105.414C387.688 104.856 388.326 104.427 389.036 104.16C389.094 104.142 389.155 104.136 389.216 104.143C389.276 104.149 389.335 104.167 389.388 104.197C389.441 104.227 389.488 104.267 389.525 104.315C389.562 104.363 389.589 104.418 389.604 104.477C389.637 104.6 389.621 104.731 389.559 104.841C389.498 104.952 389.395 105.035 389.274 105.072C388.716 105.291 388.217 105.637 387.816 106.082C387.415 106.526 387.122 107.058 386.962 107.635C386.937 107.718 386.889 107.792 386.823 107.848C386.758 107.904 386.677 107.941 386.592 107.952Z" fill="#263238"/>
<path d="M428.792 161.66C430.311 167.883 431.844 174.357 433.191 180.66C433.852 183.817 434.513 186.962 434.975 190.053C435.475 192.912 435.753 195.806 435.807 198.708C435.631 204.062 433.747 209.219 430.43 213.426C428.646 215.787 426.618 217.952 424.379 219.887C423.243 220.904 422.053 221.882 420.811 222.794C420.191 223.243 419.556 223.692 418.922 224.115C418.288 224.538 417.601 225 417.086 225.317L419.966 232.544C421.023 232.227 421.816 231.95 422.714 231.619C423.613 231.289 424.405 230.932 425.251 230.562C426.916 229.809 428.554 228.977 430.166 228.052C433.428 226.14 436.445 223.837 439.15 221.195C442.003 218.402 444.393 215.173 446.232 211.629C448.13 207.914 449.339 203.885 449.799 199.738C450.144 195.932 450.144 192.102 449.799 188.296C449.495 184.729 449.059 181.241 448.478 177.792C447.362 170.958 445.863 164.191 443.986 157.525L428.792 161.66Z" fill="#E4897B"/>
<path d="M434.777 145.977C445.281 147.853 451.226 175.93 451.226 175.93L425.251 185.178C424.047 178.108 424.047 170.884 425.251 163.814C427.127 151.896 424.802 144.194 434.777 145.977Z" fill="#3399CC"/>
<path opacity="0.6" d="M434.777 145.977C445.281 147.853 451.226 175.93 451.226 175.93L425.251 185.178C424.047 178.108 424.047 170.884 425.251 163.814C427.127 151.896 424.802 144.194 434.777 145.977Z" fill="white"/>
<path d="M384.887 144.682L382.39 145.145C382.286 145.163 382.19 145.214 382.117 145.29C382.043 145.366 381.996 145.463 381.981 145.568C375.374 183.064 379.748 221.631 379.748 221.631H382.522C379.88 180.818 384.623 150.06 385.442 145.224C385.457 145.149 385.453 145.07 385.43 144.997C385.408 144.923 385.367 144.856 385.312 144.803C385.257 144.749 385.189 144.71 385.115 144.689C385.041 144.668 384.962 144.666 384.887 144.682Z" fill="#3399CC"/>
<path opacity="0.1" d="M384.887 144.682L382.39 145.145C382.286 145.163 382.19 145.214 382.117 145.29C382.043 145.366 381.996 145.463 381.981 145.568C375.374 183.064 379.748 221.631 379.748 221.631H382.522C379.88 180.818 384.623 150.06 385.442 145.224C385.457 145.149 385.453 145.07 385.43 144.997C385.408 144.923 385.367 144.856 385.312 144.803C385.257 144.749 385.189 144.71 385.115 144.689C385.041 144.668 384.962 144.666 384.887 144.682Z" fill="white"/>
<path d="M382.033 222.516H380.118C379.882 222.516 379.655 222.423 379.487 222.258C379.319 222.092 379.223 221.867 379.219 221.631C379.219 221.395 379.312 221.168 379.478 221C379.643 220.832 379.868 220.736 380.104 220.733H382.02C382.257 220.736 382.484 220.832 382.652 220.999C382.819 221.167 382.915 221.394 382.919 221.631C382.92 221.748 382.899 221.864 382.855 221.972C382.811 222.08 382.746 222.178 382.663 222.261C382.581 222.343 382.482 222.409 382.374 222.452C382.266 222.496 382.15 222.518 382.033 222.516Z" fill="#263238"/>
<path d="M379.933 224.855V222.344C379.931 222.191 379.96 222.039 380.018 221.897C380.075 221.756 380.161 221.627 380.269 221.518C380.378 221.41 380.506 221.324 380.648 221.267C380.79 221.209 380.942 221.18 381.095 221.182C381.405 221.182 381.702 221.304 381.922 221.521C382.142 221.739 382.268 222.035 382.271 222.344V224.855C382.273 225.007 382.245 225.158 382.188 225.299C382.131 225.44 382.046 225.568 381.939 225.676C381.832 225.784 381.705 225.87 381.565 225.929C381.424 225.987 381.274 226.017 381.122 226.017C380.812 226.014 380.515 225.891 380.294 225.675C380.072 225.458 379.943 225.164 379.933 224.855Z" fill="#263238"/>
<path d="M419.094 485.573C418.434 485.733 417.74 485.663 417.125 485.375C416.927 485.254 416.763 485.083 416.652 484.879C416.541 484.675 416.485 484.445 416.491 484.212C416.475 484.076 416.496 483.938 416.552 483.812C416.608 483.687 416.696 483.579 416.808 483.499C417.826 482.772 421.261 484.212 421.644 484.384C421.686 484.401 421.721 484.43 421.744 484.468C421.768 484.506 421.779 484.551 421.776 484.596C421.774 484.643 421.759 484.688 421.734 484.728C421.708 484.767 421.673 484.799 421.631 484.82C420.813 485.158 419.963 485.41 419.094 485.573ZM417.376 483.776C417.268 483.787 417.164 483.823 417.072 483.882C417.029 483.916 416.996 483.961 416.978 484.012C416.959 484.064 416.955 484.119 416.967 484.173C416.961 484.33 416.998 484.487 417.072 484.626C417.146 484.765 417.256 484.882 417.39 484.966C418.565 485.295 419.823 485.163 420.904 484.596C419.794 484.093 418.595 483.814 417.376 483.776Z" fill="#3399CC"/>
<path d="M421.565 484.834H421.446C420.349 484.437 418.116 482.601 418.195 481.478C418.211 481.299 418.285 481.13 418.407 480.998C418.53 480.867 418.692 480.78 418.869 480.751C419.041 480.699 419.223 480.685 419.401 480.71C419.578 480.736 419.749 480.799 419.9 480.896C421.155 481.649 421.736 484.437 421.763 484.556C421.77 484.597 421.767 484.64 421.753 484.679C421.739 484.718 421.715 484.754 421.684 484.781C421.649 484.808 421.608 484.826 421.565 484.834ZM419.081 481.16H418.975C418.684 481.253 418.671 481.385 418.671 481.451C418.671 482.112 420.072 483.539 421.181 484.094C420.98 482.994 420.445 481.984 419.649 481.2C419.473 481.127 419.278 481.113 419.094 481.16H419.081Z" fill="#3399CC"/>
<path d="M424.934 230.681L421.895 225.159L413.558 225.449L407.071 228.092L402.658 234.592L413.994 233.905C413.994 233.905 420.944 235.874 424.934 230.681Z" fill="#E4897B"/>
<path d="M401.918 148.593L403.913 147.193L407.89 151.156L401.918 148.593Z" fill="#3399CC"/>
<path opacity="0.4" d="M401.918 148.593L403.913 147.193L407.89 151.156L401.918 148.593Z" fill="white"/>
<path d="M403.913 147.193C403.913 147.193 407.15 151.962 407.692 155.411C411.827 153.72 419.675 149.492 420.904 143.52C419.437 143.051 418.042 142.384 416.755 141.538C416.755 141.538 412.541 145.026 403.913 147.193Z" fill="#3399CC"/>
<path opacity="0.2" d="M403.913 147.193C403.913 147.193 407.15 151.962 407.692 155.411C411.827 153.72 419.675 149.492 420.904 143.52C419.437 143.051 418.042 142.384 416.755 141.538C416.755 141.538 412.541 145.026 403.913 147.193Z" fill="white"/>
<path d="M401.918 148.593L401.178 146.968L395.695 151.156L401.918 148.593Z" fill="#3399CC"/>
<path opacity="0.4" d="M401.918 148.593L401.178 146.968L395.695 151.156L401.918 148.593Z" fill="white"/>
<path d="M401.178 146.968C399.001 148.992 397.529 151.658 396.977 154.578C393.013 152.887 391.573 147.365 392.762 143.705C394.33 143.004 395.969 142.473 397.65 142.119C397.541 143.22 397.84 144.322 398.49 145.216C399.141 146.11 400.098 146.734 401.178 146.968Z" fill="#3399CC"/>
<path opacity="0.2" d="M401.178 146.968C399.001 148.992 397.529 151.658 396.977 154.578C393.013 152.887 391.573 147.365 392.762 143.705C394.33 143.004 395.969 142.473 397.65 142.119C397.541 143.22 397.84 144.322 398.49 145.216C399.141 146.11 400.098 146.734 401.178 146.968Z" fill="white"/>
<path d="M306.023 186.341L389.221 183.395L401.257 232.029L318.059 234.975L306.023 186.341Z" fill="#3399CC"/>
<path opacity="0.1" d="M306.023 186.341L389.221 183.395L401.257 232.029L318.059 234.975L306.023 186.341Z" fill="white"/>
<path d="M303.473 186.42L386.658 183.487L398.694 232.122L315.496 235.068L303.473 186.42Z" fill="#263238"/>
<path d="M315.496 235.068L315.84 237.763L399.038 234.817L398.694 232.122L315.496 235.068Z" fill="#263238"/>
<path d="M398.694 232.122L399.038 234.817L431.685 233.667L431.355 230.972L398.694 232.122Z" fill="#3399CC"/>
<path opacity="0.1" d="M398.694 232.122L399.038 234.817L431.685 233.667L431.355 230.972L398.694 232.122Z" fill="white"/>
</g>
<defs>
<clipPath id="clip0">
<rect width="540" height="540" fill="white"/>
</clipPath>
</defs>
</svg>
