<svg width="540" height="540" viewBox="0 0 540 540" fill="none" xmlns="http://www.w3.org/2000/svg">
<g clip-path="url(#clip0)">
<path d="M25.6294 98.3343C41.8201 74.1667 65.8903 55.8599 95.7519 53.4654C125.14 51.0013 153.651 66.134 174.436 85.805C236.247 144.275 242.916 258.751 330.357 290.59C366.873 303.885 404.293 286.608 440.016 279.202C467.859 273.439 496.648 282.975 502.134 314.173C508.245 348.977 484.453 385.674 465.116 412.458C443.997 441.694 411.282 461.935 376.562 470.678C303.627 489.054 223.857 463.077 160.779 426.533C141.315 415.339 122.869 402.464 105.65 388.054C37.9081 330.976 -9.89819 244.273 4.02329 153.603C7.17465 133.842 14.5437 114.993 25.6294 98.3343Z" fill="#D6EBF5"/>
<path opacity="0.16" d="M269.923 520.934C418.998 520.934 539.847 513.879 539.847 505.175C539.847 496.472 418.998 489.416 269.923 489.416C120.849 489.416 0 496.472 0 505.175C0 513.879 120.849 520.934 269.923 520.934Z" fill="#263238"/>
<path d="M540 54.6348V334.804C539.924 338.122 538.586 341.286 536.258 343.65C533.929 346.015 530.787 347.402 527.471 347.529H124.291C117.595 347.529 112.611 341.515 112.611 334.804V54.6348C112.564 53.0739 112.832 51.5195 113.399 50.0643C113.965 48.6091 114.819 47.2827 115.909 46.1643C116.998 45.0459 118.302 44.1582 119.742 43.5542C121.182 42.9501 122.729 42.6421 124.291 42.6484H527.471C530.711 42.6138 533.836 43.8487 536.178 46.0887C538.519 48.3288 539.891 51.3962 540 54.6348Z" fill="#3399CC"/>
<path opacity="0.1" d="M540 89.5498V334.804C539.924 338.122 538.586 341.286 536.258 343.65C533.929 346.015 530.787 347.402 527.471 347.529H124.291C117.595 347.529 112.611 341.515 112.611 334.804V239.345C148.083 171.13 232.642 160.076 331.637 199.961C471.785 256.427 531.55 179.789 540 89.5498Z" fill="white"/>
<path opacity="0.2" d="M429.909 315.509H225.375C223.529 315.509 221.758 314.776 220.453 313.47C219.147 312.165 218.414 310.395 218.414 308.548C218.414 306.702 219.147 304.932 220.453 303.627C221.758 302.321 223.529 301.588 225.375 301.588H429.909C431.755 301.588 433.526 302.321 434.831 303.627C436.136 304.932 436.87 306.702 436.87 308.548C436.87 310.395 436.136 312.165 434.831 313.47C433.526 314.776 431.755 315.509 429.909 315.509Z" fill="black"/>
<path d="M225.375 314.117C223.898 314.117 222.481 313.53 221.437 312.486C220.393 311.442 219.806 310.025 219.806 308.548C219.806 307.072 220.393 305.655 221.437 304.611C222.481 303.567 223.898 302.98 225.375 302.98H346.269C347.746 302.98 349.162 303.567 350.206 304.611C351.251 305.655 351.837 307.072 351.837 308.548C351.837 310.025 351.251 311.442 350.206 312.486C349.162 313.53 347.746 314.117 346.269 314.117H225.375Z" fill="#3399CC"/>
<path opacity="0.7" d="M225.375 314.117C223.898 314.117 222.481 313.53 221.437 312.486C220.393 311.442 219.806 310.025 219.806 308.548C219.806 307.072 220.393 305.655 221.437 304.611C222.481 303.567 223.898 302.98 225.375 302.98H346.269C347.746 302.98 349.162 303.567 350.206 304.611C351.251 305.655 351.837 307.072 351.837 308.548C351.837 310.025 351.251 311.442 350.206 312.486C349.162 313.53 347.746 314.117 346.269 314.117H225.375Z" fill="white"/>
<path d="M144.533 325.616C157.508 336.043 152.983 385.813 155.419 393.469C157.856 401.126 168.297 407.391 168.297 407.391L153.735 424.445C153.735 424.445 141.554 422.329 132.296 402.491C123.038 382.653 144.533 325.616 144.533 325.616Z" fill="#263238"/>
<path opacity="0.2" d="M144.533 325.616C157.508 336.043 152.983 385.813 155.419 393.469C157.856 401.126 168.297 407.391 168.297 407.391L153.735 424.445C153.735 424.445 141.554 422.329 132.296 402.491C123.038 382.653 144.533 325.616 144.533 325.616Z" fill="black"/>
<path d="M130.709 434.886C130.709 434.886 223.983 408.867 235.649 441.596C247.315 474.325 162.728 500.4 115.91 502.057C69.0922 503.714 49.9641 470.748 63.7742 439.522L130.709 434.886Z" fill="#3399CC"/>
<path opacity="0.2" d="M130.709 434.886C130.709 434.886 223.983 408.867 235.649 441.596C247.315 474.325 162.728 500.4 115.91 502.057C69.0922 503.714 49.9641 470.748 63.7742 439.522L130.709 434.886Z" fill="black"/>
<path d="M222.131 487.857C222.079 487.891 222.019 487.908 221.957 487.908C221.895 487.908 221.835 487.891 221.783 487.857C221.737 487.826 221.703 487.779 221.688 487.726C221.673 487.673 221.677 487.615 221.699 487.565C221.853 487.05 223.412 482.539 224.971 482.066C225.139 482.029 225.314 482.036 225.48 482.084C225.645 482.133 225.796 482.222 225.918 482.344C226.134 482.526 226.299 482.763 226.394 483.03C226.489 483.296 226.512 483.583 226.461 483.862C226.208 484.703 225.696 485.444 224.999 485.978C224.105 486.694 223.144 487.323 222.131 487.857ZM222.535 486.98C223.994 486.343 225.175 485.201 225.862 483.764C225.903 483.573 225.888 483.374 225.819 483.192C225.75 483.009 225.629 482.85 225.472 482.734C225.431 482.68 225.373 482.641 225.308 482.623C225.242 482.606 225.173 482.61 225.11 482.636C224.974 482.675 224.85 482.747 224.748 482.845C223.781 484.079 223.05 485.481 222.59 486.98H222.535Z" fill="#3399CC"/>
<path d="M222.047 487.913C221.996 487.929 221.941 487.929 221.889 487.914C221.837 487.9 221.79 487.87 221.755 487.829C221.602 487.704 219.444 484.961 219.806 483.124C219.848 482.896 219.935 482.679 220.061 482.486C220.188 482.292 220.352 482.126 220.544 481.996C220.709 481.837 220.923 481.74 221.151 481.719C221.379 481.699 221.607 481.758 221.797 481.885C222.925 482.678 222.785 486.326 222.228 487.718V487.857L222.047 487.913ZM220.808 482.553C220.618 482.724 220.49 482.955 220.447 483.207C220.21 484.377 221.296 486.131 221.839 486.966C222.187 485.407 222.075 482.79 221.407 482.386C221.337 482.386 221.198 482.233 220.864 482.469L220.753 482.553H220.808Z" fill="#3399CC"/>
<path d="M127.089 504.41C127.105 504.351 127.137 504.298 127.182 504.257C127.226 504.215 127.28 504.186 127.34 504.173C127.394 504.166 127.45 504.177 127.498 504.205C127.546 504.232 127.583 504.275 127.604 504.326C127.883 504.799 130.013 509.059 129.247 510.507C129.161 510.656 129.037 510.778 128.888 510.861C128.738 510.945 128.569 510.986 128.398 510.981C128.118 511.014 127.834 510.971 127.576 510.855C127.319 510.74 127.098 510.557 126.936 510.326C126.51 509.554 126.34 508.667 126.449 507.793C126.552 506.647 126.766 505.514 127.089 504.41ZM127.423 505.301C126.874 506.797 126.874 508.44 127.423 509.936C127.532 510.1 127.686 510.229 127.866 510.308C128.046 510.387 128.245 510.412 128.439 510.382C128.508 510.386 128.577 510.37 128.636 510.335C128.696 510.301 128.743 510.249 128.774 510.187C128.826 510.058 128.859 509.922 128.871 509.783C128.661 508.214 128.171 506.696 127.423 505.301Z" fill="#3399CC"/>
<path d="M149.684 472.919L133.187 485.017L125.265 490.822L130.43 499.857L138.477 495.458L158.12 484.711L149.684 472.919Z" fill="#EBB376"/>
<path d="M132.992 499.579L128.008 488.595C127.942 488.451 127.848 488.321 127.732 488.214C127.615 488.106 127.478 488.024 127.328 487.971C127.179 487.917 127.02 487.895 126.862 487.904C126.704 487.913 126.549 487.954 126.407 488.024L121.033 490.655C121.033 490.655 113.557 493.676 112.68 496.099C109.896 503.199 120.323 527.77 123.567 527.784C124.75 527.784 125.46 525.946 125.627 524.777C126.142 521.046 126.24 511.691 126.713 508.586C127.27 504.967 130.89 502.182 132.63 501.069C132.855 500.902 133.014 500.661 133.081 500.389C133.147 500.117 133.115 499.83 132.992 499.579Z" fill="#263238"/>
<path d="M127.103 504.312C127.129 504.265 127.167 504.225 127.214 504.198C127.26 504.171 127.314 504.158 127.368 504.159C127.562 504.159 131.029 504.507 132.101 506.052C132.364 506.44 132.464 506.915 132.379 507.375C132.378 507.604 132.299 507.825 132.154 508.002C132.01 508.179 131.809 508.302 131.586 508.349C130.194 508.6 127.716 505.955 127.117 504.591V504.465C127.099 504.417 127.094 504.364 127.103 504.312ZM131.795 507.18C131.811 506.922 131.737 506.666 131.586 506.456C130.918 505.482 128.899 505.064 127.897 504.855C128.76 506.247 130.681 507.918 131.46 507.765C131.544 507.765 131.711 507.765 131.781 507.319V507.18H131.795Z" fill="#3399CC"/>
<path opacity="0.2" d="M149.684 472.919L133.187 485.017L138.477 495.458L158.12 484.711L149.684 472.919Z" fill="black"/>
<path d="M142.236 496.14L147.665 494.929L138.658 477.722L133.618 482.859L142.236 496.14Z" fill="#3399CC"/>
<path opacity="0.6" d="M142.236 496.14L147.665 494.929L138.658 477.722L133.618 482.859L142.236 496.14Z" fill="white"/>
<path d="M183.819 493.746L204.005 497.073L213.708 498.674L216.535 488.651L207.764 485.992L186.353 479.476L183.819 493.746Z" fill="#EBB376"/>
<path d="M214.558 487.022L210.186 498.256C210.131 498.405 210.105 498.564 210.11 498.723C210.116 498.882 210.152 499.038 210.218 499.183C210.284 499.328 210.378 499.458 210.494 499.567C210.611 499.675 210.747 499.76 210.896 499.816L216.535 501.806C216.535 501.806 223.927 505.036 226.28 504.006C233.24 500.999 243.57 476.386 241.301 474.061C240.466 473.212 238.67 473.991 237.709 474.701C234.688 476.929 227.964 483.416 225.389 485.24C222.409 487.384 217.857 486.716 215.88 486.284C215.608 486.23 215.326 486.275 215.083 486.41C214.841 486.545 214.655 486.762 214.558 487.022Z" fill="#263238"/>
<path opacity="0.2" d="M183.819 493.746L204.005 497.073L207.764 485.992L186.353 479.476L183.819 493.746Z" fill="black"/>
<path d="M204.284 483.959C204.284 483.959 120.365 434.454 91.9652 435.777C63.5654 437.099 61.1013 465.304 72.8092 480.966C84.5172 496.628 106.221 500.456 106.221 500.456C106.221 500.456 91.4919 479.574 93.6218 473.782C95.7518 467.991 103.868 487.62 103.868 487.62C103.868 487.62 155.865 494.428 201.165 498.27L204.284 483.959Z" fill="#3399CC"/>
<path d="M205.62 482.623L200.956 479.49L194.97 497.881H202.154L205.62 482.623Z" fill="#3399CC"/>
<path opacity="0.6" d="M205.62 482.623L200.956 479.49L194.97 497.881H202.154L205.62 482.623Z" fill="white"/>
<path d="M141.693 443.587C126.504 414.352 131.335 369.873 144.477 325.616C135.289 317.945 98.6336 312.767 70.6932 320.897C70.6932 320.897 52.9573 386.62 55.0455 458.413L141.693 443.587Z" fill="#263238"/>
<path d="M109.451 332.8C97.2415 332.8 89.2923 319.992 89.2923 319.992C105.302 314.423 105.358 297.481 105.358 297.481L111.525 303.509L120.309 312.112C113.001 317.291 116.453 321.774 118.778 323.765C119.253 324.19 119.766 324.572 120.309 324.906C120.309 324.906 121.66 332.8 109.451 332.8Z" fill="#EBB376"/>
<path opacity="0.2" d="M118.778 323.765C103.798 325.449 104.856 303.022 104.856 303.022C107.103 302.986 109.349 303.149 111.567 303.509L120.351 312.112C113.001 317.291 116.453 321.774 118.778 323.765Z" fill="black"/>
<path d="M130.472 280.706C124.806 283.044 125.892 289.239 135.303 300.53C141.094 295.532 144.24 284.172 141.192 280.525C138.143 276.877 135.428 278.631 130.472 280.706Z" fill="#263238"/>
<path d="M138.853 305.764C138.339 307.275 137.735 308.753 137.043 310.191C131.474 321.593 115.353 323.806 108.226 312.53L108.142 312.419C103.437 304.832 105.205 297.745 107.167 285.467C107.605 282.621 108.758 279.932 110.52 277.655C112.282 275.377 114.594 273.585 117.239 272.446C119.883 271.307 122.774 270.86 125.639 271.146C128.505 271.431 131.25 272.441 133.618 274.079C143.001 280.608 142.444 295.281 138.853 305.764Z" fill="#EBB376"/>
<path d="M124.5 292.887C124.277 293.875 124.625 294.794 125.265 294.933C125.906 295.073 126.658 294.404 126.825 293.416C126.992 292.427 126.699 291.523 126.073 291.369C125.446 291.216 124.778 291.926 124.5 292.887Z" fill="#263238"/>
<path d="M135.693 295.421C135.47 296.395 135.818 297.314 136.472 297.453C137.127 297.592 137.864 296.938 138.045 295.936C138.226 294.933 137.906 294.028 137.266 293.889C136.625 293.75 135.915 294.432 135.693 295.421Z" fill="#263238"/>
<path d="M131.934 295.059C132.421 298.336 133.358 301.531 134.718 304.553C132.574 305.778 129.804 304.372 129.804 304.372L131.934 295.059Z" fill="#D58745"/>
<path d="M122.231 288.669C122.097 288.66 121.972 288.6 121.882 288.502C121.827 288.447 121.783 288.382 121.753 288.31C121.723 288.239 121.707 288.162 121.707 288.084C121.707 288.006 121.723 287.929 121.753 287.857C121.783 287.786 121.827 287.721 121.882 287.666C122.58 287.028 123.422 286.568 124.336 286.326C125.25 286.083 126.209 286.066 127.131 286.274C127.276 286.313 127.401 286.409 127.476 286.539C127.552 286.669 127.573 286.824 127.535 286.97C127.484 287.117 127.38 287.24 127.244 287.314C127.107 287.389 126.948 287.41 126.797 287.374C126.064 287.207 125.301 287.22 124.574 287.411C123.846 287.603 123.176 287.967 122.62 288.474C122.519 288.584 122.38 288.654 122.231 288.669Z" fill="#263238"/>
<path d="M141.637 292.789C141.528 292.76 141.43 292.702 141.351 292.621C141.273 292.54 141.218 292.439 141.192 292.33C141.041 291.602 140.72 290.92 140.256 290.339C139.791 289.758 139.196 289.296 138.519 288.989C138.371 288.932 138.251 288.821 138.184 288.679C138.117 288.536 138.107 288.373 138.157 288.223C138.21 288.077 138.319 287.957 138.459 287.89C138.599 287.822 138.761 287.812 138.908 287.861C139.771 288.234 140.532 288.807 141.128 289.534C141.724 290.26 142.137 291.119 142.333 292.038C142.352 292.113 142.355 292.19 142.344 292.267C142.332 292.343 142.306 292.417 142.265 292.483C142.225 292.549 142.172 292.606 142.11 292.651C142.048 292.697 141.977 292.73 141.902 292.748H141.637V292.789Z" fill="#263238"/>
<path d="M114.393 275.861C119.613 279.077 117.553 285.021 106.471 294.655C101.529 288.808 100.235 277.072 103.84 273.981C107.446 270.891 109.826 273.063 114.393 275.861Z" fill="#263238"/>
<path d="M99.2183 293.903C99.3075 295.451 99.7015 296.966 100.378 298.361C101.054 299.756 101.999 301.004 103.158 302.033C106.276 304.818 109.604 302.395 110.23 298.525C110.801 295.031 109.84 289.407 106.054 288.181C102.267 286.956 99.0094 290.075 99.2183 293.903Z" fill="#EBB376"/>
<path d="M120.309 304.497C120.309 304.497 121.59 308.924 127.521 309.955" stroke="#263238" stroke-width="0.557248" stroke-linecap="round" stroke-linejoin="round"/>
<path d="M130.973 295.142C130.973 295.968 130.728 296.776 130.269 297.462C129.81 298.149 129.158 298.685 128.395 299.001C127.632 299.317 126.792 299.399 125.982 299.238C125.172 299.077 124.428 298.679 123.844 298.095C123.26 297.511 122.862 296.767 122.701 295.957C122.539 295.147 122.622 294.307 122.938 293.544C123.254 292.781 123.79 292.128 124.476 291.67C125.163 291.211 125.971 290.966 126.797 290.966C127.904 290.966 128.967 291.406 129.75 292.189C130.533 292.972 130.973 294.034 130.973 295.142Z" stroke="#263238" stroke-width="0.557248" stroke-linecap="round" stroke-linejoin="round"/>
<path d="M142.347 297.481C142.347 298.307 142.102 299.114 141.643 299.801C141.184 300.488 140.532 301.023 139.769 301.339C139.006 301.656 138.166 301.738 137.356 301.577C136.546 301.416 135.802 301.018 135.217 300.434C134.633 299.85 134.236 299.106 134.074 298.296C133.913 297.486 133.996 296.646 134.312 295.883C134.628 295.12 135.164 294.467 135.85 294.008C136.537 293.549 137.345 293.304 138.171 293.304C139.278 293.304 140.341 293.744 141.124 294.528C141.907 295.311 142.347 296.373 142.347 297.481Z" stroke="#263238" stroke-width="0.557248" stroke-linecap="round" stroke-linejoin="round"/>
<path d="M130.973 296.284C131.471 296.018 132.05 295.95 132.596 296.095C133.141 296.239 133.611 296.586 133.911 297.063" stroke="#263238" stroke-width="0.557248" stroke-linecap="round" stroke-linejoin="round"/>
<path d="M122.62 294.279C122.62 294.279 110.523 289.184 108.267 288.71" stroke="#263238" stroke-width="0.557248" stroke-linecap="round" stroke-linejoin="round"/>
<path d="M103.715 274.149C103.715 274.149 102.462 264.32 112.499 262.691C122.537 261.062 135.665 263.582 139.73 261.842C139.571 262.713 139.233 263.541 138.736 264.275C138.24 265.008 137.597 265.63 136.848 266.102C136.848 266.102 144.505 268.886 150.533 266.492C150.533 266.492 147.916 273.745 144.533 276.529H147.414C147.414 276.529 141.707 281.986 134.76 282.098C127.813 282.209 121.27 272.645 114.393 275.861C107.516 279.077 103.715 274.149 103.715 274.149Z" fill="#263238"/>
<path opacity="0.4" d="M138.853 305.764C138.339 307.275 137.735 308.753 137.043 310.191C131.474 321.593 115.353 323.806 108.225 312.53L108.142 312.419C104.467 305.89 107.404 298.762 107.404 298.762L109.548 291.801L111.107 290.256C111.107 290.256 111.469 297.314 112.569 299.305C113.669 301.295 119.933 301.88 121.214 302.228C122.495 302.576 125.53 306.196 127.033 307.17C128.537 308.145 133.994 307.337 134.704 308.145C135.414 308.952 138.853 305.764 138.853 305.764Z" fill="black"/>
<path opacity="0.2" d="M76.2618 417.832L105.135 449.852C105.135 449.852 137.043 449.142 175.8 468.089C175.8 468.089 217.384 450.91 221.212 436.64C225.041 422.371 133.911 432.464 133.911 432.464L76.2618 417.832Z" fill="black"/>
<path d="M84.4198 408.435L130.709 423.582C130.709 423.582 147.247 419.92 150.199 419.92C153.15 419.92 164.58 429.206 158.12 432.45C151.661 435.693 134.022 436.111 132.101 435.067C130.18 434.023 78.8512 422.009 78.8512 422.009L84.4198 408.435Z" fill="#EBB376"/>
<path d="M70.6932 320.897C81.1622 318.864 62.9946 382.68 67.4495 392.077C71.9044 401.474 89.2923 407.391 89.2923 407.391L81.2875 425.057C81.2875 425.057 57.621 420.588 44.7436 404.175C31.8662 387.762 53.5977 324.21 70.6932 320.897Z" fill="#263238"/>
<path opacity="0.2" d="M70.6932 320.897C81.1622 318.864 62.9946 382.68 67.4495 392.077C71.9044 401.474 89.2923 407.391 89.2923 407.391L81.2875 425.057C81.2875 425.057 57.621 420.588 44.7436 404.175C31.8662 387.762 53.5977 324.21 70.6932 320.897Z" fill="black"/>
<path d="M89.2923 405.999L79.5472 425.085L87.9001 426.881L95.5569 409.312L89.2923 405.999Z" fill="#263238"/>
<path opacity="0.2" d="M89.2923 405.999L79.5472 425.085L87.9001 426.881L95.5569 409.312L89.2923 405.999Z" fill="white"/>
<path d="M108.434 432.45V435.484C108.437 436.496 108.829 437.468 109.528 438.199C110.228 438.93 111.182 439.364 112.193 439.41H224.108C225.152 439.381 226.146 438.961 226.896 438.235C227.646 437.508 228.097 436.527 228.159 435.484V432.45H108.434Z" fill="#263238"/>
<path opacity="0.2" d="M108.434 432.45V435.484C108.437 436.496 108.829 437.468 109.528 438.199C110.228 438.93 111.182 439.364 112.193 439.41H224.108C225.152 439.381 226.146 438.961 226.896 438.235C227.646 437.508 228.097 436.527 228.159 435.484V432.45H108.434Z" fill="white"/>
<path opacity="0.2" d="M150.199 432.45V435.484C150.205 436.498 150.6 437.47 151.302 438.2C152.004 438.931 152.959 439.364 153.971 439.41H224.108C225.152 439.381 226.147 438.961 226.896 438.235C227.646 437.508 228.097 436.527 228.159 435.484V432.45H150.199Z" fill="white"/>
<path d="M153.971 436.626H227.908C229.096 436.568 230.239 436.161 231.195 435.455C232.151 434.749 232.877 433.776 233.282 432.658L250.238 379.465C250.433 379.011 250.51 378.516 250.462 378.025C250.415 377.534 250.244 377.063 249.967 376.656C249.69 376.248 249.314 375.916 248.875 375.692C248.436 375.468 247.947 375.357 247.454 375.372H173.462C172.265 375.459 171.12 375.892 170.166 376.619C169.212 377.346 168.49 378.335 168.088 379.465L151.131 432.589C150.935 433.043 150.859 433.541 150.91 434.033C150.961 434.526 151.137 434.997 151.422 435.402C151.707 435.807 152.091 436.132 152.537 436.347C152.983 436.561 153.477 436.657 153.971 436.626Z" fill="#263238"/>
<path opacity="0.2" d="M153.971 436.626H227.908C229.096 436.568 230.239 436.161 231.195 435.455C232.151 434.749 232.877 433.776 233.282 432.658L250.238 379.465C250.433 379.011 250.51 378.516 250.462 378.025C250.415 377.534 250.244 377.063 249.967 376.656C249.69 376.248 249.314 375.916 248.875 375.692C248.436 375.468 247.947 375.357 247.454 375.372H173.462C172.265 375.459 171.12 375.892 170.166 376.619C169.212 377.346 168.49 378.335 168.088 379.465L151.131 432.589C150.935 433.043 150.859 433.541 150.91 434.033C150.961 434.526 151.137 434.997 151.422 435.402C151.707 435.807 152.091 436.132 152.537 436.347C152.983 436.561 153.477 436.657 153.971 436.626Z" fill="white"/>
<path opacity="0.2" d="M156.756 436.626H227.908C229.096 436.568 230.239 436.161 231.195 435.455C232.151 434.749 232.877 433.776 233.282 432.658L250.238 379.465C250.433 379.011 250.51 378.516 250.462 378.025C250.415 377.534 250.244 377.063 249.967 376.656C249.69 376.248 249.314 375.916 248.875 375.692C248.436 375.468 247.947 375.357 247.454 375.372H176.246C175.05 375.459 173.905 375.892 172.95 376.619C171.996 377.346 171.274 378.335 170.872 379.465L153.916 432.589C153.72 433.043 153.643 433.541 153.694 434.033C153.745 434.526 153.921 434.997 154.206 435.402C154.491 435.807 154.875 436.132 155.321 436.347C155.768 436.561 156.262 436.657 156.756 436.626Z" fill="white"/>
<path opacity="0.2" d="M207.722 400.166L197.49 407.419L201.917 414.658L212.149 407.419L207.722 400.166Z" fill="white"/>
<path opacity="0.2" d="M258.939 56.1523H165.317C158.598 56.1523 153.15 61.5998 153.15 68.3197V161.942C153.15 168.661 158.598 174.109 165.317 174.109H258.939C265.659 174.109 271.107 168.661 271.107 161.942V68.3197C271.107 61.5998 265.659 56.1523 258.939 56.1523Z" fill="black"/>
<path d="M274.866 43.2053H196.432C190.796 43.2053 186.228 47.774 186.228 53.4097V131.843C186.228 137.479 190.796 142.048 196.432 142.048H274.866C280.501 142.048 285.07 137.479 285.07 131.843V53.4097C285.07 47.774 280.501 43.2053 274.866 43.2053Z" fill="#3399CC"/>
<path opacity="0.3" d="M274.866 43.2053H196.432C190.796 43.2053 186.228 47.774 186.228 53.4097V131.843C186.228 137.479 190.796 142.048 196.432 142.048H274.866C280.501 142.048 285.07 137.479 285.07 131.843V53.4097C285.07 47.774 280.501 43.2053 274.866 43.2053Z" fill="white"/>
<path d="M243.264 81.2109V75.2386L240.187 74.9462C239.784 72.9604 239.004 71.0702 237.89 69.3776L239.867 66.9832L235.691 62.8067L233.31 64.7836C231.615 63.6733 229.726 62.8939 227.741 62.4865L227.435 59.3542H221.463L221.198 62.4865C219.214 62.8939 217.324 63.6733 215.63 64.7836L213.249 62.8067L209.073 66.9832L211.05 69.3776C209.935 71.0702 209.156 72.9604 208.752 74.9462L205.676 75.2386V81.2109L208.752 81.5033C209.16 83.4878 209.939 85.3772 211.05 87.0718L209.073 89.4663L213.249 93.6428L215.63 91.6659C217.324 92.7762 219.214 93.5556 221.198 93.963L221.491 97.0396H227.463L227.755 93.963C229.74 93.5556 231.629 92.7762 233.324 91.6659L235.704 93.6428L239.881 89.4663L237.904 87.0301C239.014 85.3355 239.794 83.446 240.201 81.4615L243.264 81.2109ZM224.456 86.3201C222.852 86.3228 221.284 85.8496 219.949 84.9604C218.615 84.0712 217.574 82.8059 216.959 81.3248C216.344 79.8438 216.183 78.2135 216.495 76.6405C216.807 75.0675 217.579 73.6226 218.713 72.4886C219.847 71.3546 221.292 70.5827 222.865 70.2705C224.438 69.9583 226.068 70.1199 227.549 70.7349C229.03 71.3499 230.295 72.3905 231.185 73.7251C232.074 75.0596 232.547 76.628 232.544 78.2317C232.541 80.3757 231.687 82.4309 230.171 83.947C228.655 85.463 226.6 86.3164 224.456 86.3201Z" fill="white"/>
<path d="M267.487 98.0976V93.4061L265.079 93.1834C264.76 91.6392 264.151 90.1699 263.283 88.8538L264.828 86.9883L261.57 83.675L259.705 85.2203C258.389 84.3522 256.92 83.7428 255.375 83.4244L255.153 81.0021H250.433L250.211 83.4244C248.666 83.7428 247.197 84.3522 245.881 85.2203L244.016 83.675L240.688 86.9883L242.234 88.8538C241.366 90.1699 240.756 91.6392 240.438 93.1834L238.029 93.4061V98.0976L240.438 98.3204C240.756 99.8645 241.366 101.334 242.234 102.65L240.688 104.515L244.002 107.829L245.867 106.283C247.183 107.151 248.653 107.761 250.197 108.079L250.419 110.488H255.111L255.334 108.079C256.878 107.761 258.347 107.151 259.663 106.283L261.529 107.829L264.842 104.515L263.297 102.65C264.165 101.334 264.774 99.8645 265.093 98.3204L267.487 98.0976ZM252.744 102.093C251.489 102.093 250.261 101.721 249.217 101.023C248.173 100.326 247.36 99.3342 246.879 98.1742C246.399 97.0143 246.273 95.7379 246.518 94.5064C246.763 93.275 247.368 92.1439 248.255 91.2561C249.143 90.3682 250.274 89.7636 251.506 89.5187C252.737 89.2737 254.014 89.3995 255.174 89.8799C256.334 90.3604 257.325 91.1741 258.023 92.218C258.72 93.262 259.092 94.4893 259.092 95.7449C259.092 97.4285 258.424 99.0432 257.233 100.234C256.043 101.424 254.428 102.093 252.744 102.093Z" fill="white"/>
<path d="M243.264 111.393V107.453L241.231 107.272C240.967 105.976 240.456 104.742 239.728 103.638L241.022 102.065L238.238 99.281L236.665 100.576C235.558 99.8518 234.326 99.3419 233.031 99.0721L232.837 97.0396H228.897L228.702 99.0721C227.407 99.3419 226.175 99.8518 225.068 100.576L223.495 99.281L220.711 102.065L222.006 103.638C221.277 104.742 220.767 105.976 220.502 107.272L218.47 107.453V111.393L220.502 111.588C220.772 112.882 221.282 114.114 222.006 115.221L220.711 116.794L223.495 119.578L225.068 118.284C226.177 119.006 227.409 119.52 228.702 119.801L228.897 121.82H232.837L233.031 119.801C234.325 119.52 235.556 119.006 236.665 118.284L238.238 119.578L241.022 116.794L239.728 115.221C240.452 114.114 240.962 112.882 241.231 111.588L243.264 111.393ZM230.943 114.748C229.888 114.75 228.855 114.44 227.976 113.855C227.097 113.27 226.411 112.438 226.006 111.463C225.601 110.488 225.494 109.415 225.699 108.379C225.904 107.343 226.413 106.392 227.159 105.646C227.906 104.899 228.857 104.391 229.893 104.186C230.928 103.98 232.001 104.087 232.976 104.492C233.951 104.898 234.784 105.583 235.368 106.462C235.953 107.341 236.264 108.374 236.261 109.43C236.261 110.84 235.701 112.193 234.704 113.19C233.706 114.187 232.354 114.748 230.943 114.748Z" fill="white"/>
<path opacity="0.2" d="M279.042 43.2053H200.608C194.973 43.2053 190.404 47.774 190.404 53.4097V131.843C190.404 137.479 194.973 142.048 200.608 142.048H279.042C284.678 142.048 289.246 137.479 289.246 131.843V53.4097C289.246 47.774 284.678 43.2053 279.042 43.2053Z" fill="white"/>
<path opacity="0.2" d="M428.976 170.642H342.427C336.214 170.642 331.178 175.679 331.178 181.891V268.441C331.178 274.653 336.214 279.689 342.427 279.689H428.976C435.189 279.689 440.225 274.653 440.225 268.441V181.891C440.225 175.679 435.189 170.642 428.976 170.642Z" fill="black"/>
<path d="M440.517 164.809H368C362.795 164.809 358.575 169.029 358.575 174.234V246.751C358.575 251.956 362.795 256.176 368 256.176H440.517C445.722 256.176 449.942 251.956 449.942 246.751V174.234C449.942 169.029 445.722 164.809 440.517 164.809Z" fill="#3399CC"/>
<path opacity="0.2" d="M440.517 164.809H368C362.795 164.809 358.575 169.029 358.575 174.234V246.751C358.575 251.956 362.795 256.176 368 256.176H440.517C445.722 256.176 449.942 251.956 449.942 246.751V174.234C449.942 169.029 445.722 164.809 440.517 164.809Z" fill="white"/>
<path d="M407.746 225.173C407.746 225.826 407.552 226.464 407.189 227.007C406.826 227.55 406.31 227.973 405.706 228.222C405.102 228.472 404.438 228.536 403.798 228.408C403.157 228.279 402.57 227.964 402.109 227.501C401.648 227.038 401.335 226.449 401.209 225.808C401.083 225.167 401.151 224.503 401.402 223.901C401.654 223.298 402.079 222.784 402.624 222.423C403.168 222.062 403.807 221.871 404.461 221.873C405.333 221.877 406.169 222.226 406.785 222.845C407.4 223.463 407.746 224.3 407.746 225.173Z" fill="white"/>
<path d="M404.168 192.262C399.866 192.261 395.606 193.107 391.63 194.752C387.655 196.398 384.043 198.811 381.001 201.853C377.959 204.895 375.546 208.507 373.901 212.482C372.255 216.457 371.409 220.717 371.411 225.02H397.569C397.526 224.148 397.668 223.277 397.986 222.464C398.304 221.651 398.791 220.915 399.415 220.305C400.039 219.694 400.785 219.223 401.604 218.922C402.424 218.621 403.298 218.498 404.168 218.56C404.837 218.592 405.498 218.719 406.131 218.936L418.396 204.694L409.737 221.539C410.414 222.573 410.768 223.784 410.753 225.02H436.981C436.981 220.713 436.132 216.449 434.482 212.471C432.833 208.493 430.415 204.88 427.367 201.837C424.319 198.795 420.702 196.383 416.721 194.74C412.74 193.097 408.475 192.255 404.168 192.262Z" fill="white"/>
<path opacity="0.2" d="M444.373 164.809H371.856C366.651 164.809 362.432 169.029 362.432 174.234V246.751C362.432 251.956 366.651 256.176 371.856 256.176H444.373C449.579 256.176 453.798 251.956 453.798 246.751V174.234C453.798 169.029 449.579 164.809 444.373 164.809Z" fill="white"/>
<path opacity="0.2" d="M455.552 83.494H379.611C374.16 83.494 369.74 87.9131 369.74 93.3643V169.306C369.74 174.757 374.16 179.176 379.611 179.176H455.552C461.004 179.176 465.423 174.757 465.423 169.306V93.3643C465.423 87.9131 461.004 83.494 455.552 83.494Z" fill="black"/>
<path d="M467.302 75.0576H403.667C399.1 75.0576 395.398 78.76 395.398 83.327V146.962C395.398 151.529 399.1 155.231 403.667 155.231H467.302C471.869 155.231 475.571 151.529 475.571 146.962V83.327C475.571 78.76 471.869 75.0576 467.302 75.0576Z" fill="#3399CC"/>
<path opacity="0.1" d="M467.302 75.0576H403.667C399.1 75.0576 395.398 78.76 395.398 83.327V146.962C395.398 151.529 399.1 155.231 403.667 155.231H467.302C471.869 155.231 475.571 151.529 475.571 146.962V83.327C475.571 78.76 471.869 75.0576 467.302 75.0576Z" fill="white"/>
<path d="M457.863 95.3969C457.863 94.6991 457.586 94.0298 457.093 93.5364C456.599 93.043 455.93 92.7657 455.232 92.7657H415.946C415.248 92.7657 414.579 93.043 414.085 93.5364C413.592 94.0298 413.315 94.6991 413.315 95.3969V104.056C413.315 104.754 413.592 105.423 414.085 105.917C414.579 106.41 415.248 106.687 415.946 106.687H455.232C455.93 106.687 456.599 106.41 457.093 105.917C457.586 105.423 457.863 104.754 457.863 104.056V95.3969ZM444.888 100.088H442.633V97.8332H444.888V100.088ZM450.916 101.216C450.467 101.219 450.026 101.088 449.651 100.839C449.275 100.591 448.982 100.237 448.809 99.8217C448.635 99.4065 448.589 98.9491 448.676 98.5076C448.763 98.0662 448.98 97.6605 449.298 97.3424C449.616 97.0242 450.022 96.8078 450.463 96.7207C450.905 96.6335 451.362 96.6796 451.777 96.8531C452.193 97.0266 452.547 97.3196 452.795 97.6949C453.043 98.0702 453.175 98.5108 453.172 98.9608C453.172 99.2581 453.113 99.5526 452.999 99.8271C452.885 100.102 452.717 100.351 452.506 100.56C452.295 100.77 452.045 100.936 451.77 101.048C451.495 101.161 451.2 101.218 450.903 101.216H450.916Z" fill="white"/>
<path d="M457.863 110.711C457.863 110.013 457.586 109.343 457.093 108.85C456.599 108.357 455.93 108.079 455.232 108.079H415.946C415.248 108.079 414.579 108.357 414.085 108.85C413.592 109.343 413.315 110.013 413.315 110.711V119.37C413.315 120.067 413.592 120.737 414.085 121.23C414.579 121.724 415.248 122.001 415.946 122.001H455.232C455.93 122.001 456.599 121.724 457.093 121.23C457.586 120.737 457.863 120.067 457.863 119.37V110.711ZM444.888 116.279H442.633V114.024H444.888V116.279ZM450.916 117.407C450.47 117.407 450.034 117.274 449.664 117.027C449.293 116.779 449.004 116.427 448.833 116.015C448.662 115.602 448.618 115.149 448.705 114.711C448.792 114.274 449.006 113.872 449.322 113.557C449.637 113.241 450.039 113.027 450.476 112.94C450.914 112.852 451.367 112.897 451.78 113.068C452.192 113.239 452.544 113.528 452.792 113.898C453.039 114.269 453.172 114.705 453.172 115.151C453.172 115.448 453.113 115.742 452.999 116.016C452.884 116.289 452.717 116.538 452.505 116.746C452.294 116.955 452.044 117.119 451.769 117.23C451.494 117.341 451.199 117.397 450.903 117.393L450.916 117.407Z" fill="white"/>
<path d="M457.863 126.024C457.863 125.326 457.586 124.657 457.093 124.164C456.599 123.67 455.93 123.393 455.232 123.393H415.946C415.248 123.393 414.579 123.67 414.085 124.164C413.592 124.657 413.315 125.326 413.315 126.024V134.683C413.315 135.381 413.592 136.05 414.085 136.544C414.579 137.037 415.248 137.314 415.946 137.314H455.232C455.93 137.314 456.599 137.037 457.093 136.544C457.586 136.05 457.863 135.381 457.863 134.683V126.024ZM444.888 132.456H442.633V130.201H444.888V132.456ZM450.916 133.584C450.47 133.584 450.034 133.451 449.664 133.203C449.293 132.956 449.004 132.603 448.833 132.191C448.662 131.779 448.618 131.326 448.705 130.888C448.792 130.451 449.006 130.049 449.322 129.734C449.637 129.418 450.039 129.203 450.476 129.116C450.914 129.029 451.367 129.074 451.78 129.245C452.192 129.415 452.544 129.704 452.792 130.075C453.039 130.446 453.172 130.882 453.172 131.328C453.172 131.626 453.113 131.92 452.999 132.195C452.885 132.469 452.717 132.718 452.506 132.928C452.295 133.137 452.045 133.303 451.77 133.416C451.495 133.528 451.2 133.585 450.903 133.584H450.916Z" fill="white"/>
<path opacity="0.2" d="M470.699 75.0576H407.064C402.497 75.0576 398.794 78.76 398.794 83.327V146.962C398.794 151.529 402.497 155.231 407.064 155.231H470.699C475.266 155.231 478.968 151.529 478.968 146.962V83.327C478.968 78.76 475.266 75.0576 470.699 75.0576Z" fill="white"/>
<path opacity="0.2" d="M319.484 157.584H225.862C219.142 157.584 213.695 163.032 213.695 169.751V263.373C213.695 270.093 219.142 275.541 225.862 275.541H319.484C326.204 275.541 331.651 270.093 331.651 263.373V169.751C331.651 163.032 326.204 157.584 319.484 157.584Z" fill="black"/>
<path d="M330.009 149.245H251.575C245.939 149.245 241.371 153.814 241.371 159.45V237.883C241.371 243.519 245.939 248.088 251.575 248.088H330.009C335.644 248.088 340.213 243.519 340.213 237.883V159.45C340.213 153.814 335.644 149.245 330.009 149.245Z" fill="#3399CC"/>
<path opacity="0.5" d="M330.009 149.245H251.575C245.939 149.245 241.371 153.814 241.371 159.45V237.883C241.371 243.519 245.939 248.088 251.575 248.088H330.009C335.644 248.088 340.213 243.519 340.213 237.883V159.45C340.213 153.814 335.644 149.245 330.009 149.245Z" fill="white"/>
<path d="M263.45 225.799C262.732 225.082 262.163 224.23 261.774 223.292C261.386 222.355 261.186 221.35 261.186 220.335C261.186 219.32 261.386 218.315 261.774 217.378C262.163 216.44 262.732 215.588 263.45 214.871L281.548 196.857C281.95 196.45 282.43 196.127 282.958 195.907C283.486 195.687 284.052 195.573 284.625 195.573C285.197 195.573 285.763 195.687 286.291 195.907C286.819 196.127 287.299 196.45 287.701 196.857L292.462 201.604C292.869 202.008 293.192 202.488 293.413 203.017C293.633 203.546 293.747 204.114 293.747 204.687C293.747 205.261 293.633 205.828 293.413 206.358C293.192 206.887 292.869 207.367 292.462 207.771L274.434 225.799C273.717 226.529 272.863 227.108 271.92 227.504C270.977 227.899 269.964 228.103 268.942 228.103C267.919 228.103 266.907 227.899 265.964 227.504C265.021 227.108 264.167 226.529 263.45 225.799Z" fill="white"/>
<path d="M296.667 196.133L293.117 192.583L313.484 172.216L317.925 171.325L317.034 175.766L296.667 196.133Z" fill="white"/>
<path d="M294.662 200.852L288.397 194.574C288.26 194.443 288.151 194.287 288.077 194.113C288.002 193.94 287.964 193.753 287.964 193.564C287.964 193.375 288.002 193.189 288.077 193.015C288.151 192.841 288.26 192.685 288.397 192.555C288.527 192.416 288.685 192.305 288.86 192.229C289.034 192.153 289.223 192.114 289.413 192.114C289.604 192.114 289.792 192.153 289.967 192.229C290.142 192.305 290.3 192.416 290.43 192.555L296.694 198.82C296.834 198.95 296.944 199.107 297.02 199.282C297.096 199.457 297.135 199.645 297.135 199.836C297.135 200.026 297.096 200.215 297.02 200.39C296.944 200.564 296.834 200.722 296.694 200.852C296.564 200.991 296.407 201.102 296.232 201.178C296.057 201.254 295.869 201.293 295.678 201.293C295.488 201.293 295.299 201.254 295.124 201.178C294.949 201.102 294.792 200.991 294.662 200.852Z" fill="white"/>
<path d="M286.225 188.824L277.636 180.207C279.237 175.905 275.993 170.615 272.471 169.222L272.401 175.849C272.401 176.588 272.108 177.296 271.586 177.818C271.064 178.34 270.356 178.633 269.617 178.633C268.879 178.633 268.17 178.34 267.648 177.818C267.126 177.296 266.833 176.588 266.833 175.849V169.334C265.217 169.989 263.821 171.091 262.81 172.511C261.799 173.932 261.215 175.611 261.125 177.353C261.146 179.408 261.91 181.387 263.277 182.922C264.643 184.458 266.52 185.447 268.559 185.706C269.978 185.924 271.431 185.72 272.736 185.121L281.395 193.808L286.225 188.824Z" fill="white"/>
<path d="M314.82 221.512V228.096C316.436 227.442 317.832 226.339 318.843 224.919C319.854 223.498 320.438 221.819 320.528 220.078C320.541 218.03 319.817 216.047 318.488 214.49C317.158 212.933 315.313 211.907 313.289 211.599C311.957 211.324 310.574 211.459 309.321 211.989L300.328 202.968L295.4 207.896L304.337 216.848C301.748 222.138 305.73 226.593 309.307 227.985V221.442C309.307 220.703 309.601 219.995 310.123 219.473C310.645 218.951 311.353 218.658 312.092 218.658C312.458 218.665 312.82 218.745 313.156 218.892C313.492 219.04 313.796 219.252 314.049 219.517C314.303 219.782 314.502 220.095 314.634 220.437C314.766 220.78 314.829 221.145 314.82 221.512Z" fill="white"/>
<path opacity="0.2" d="M334.185 149.245H255.751C250.116 149.245 245.547 153.814 245.547 159.45V237.883C245.547 243.519 250.116 248.088 255.751 248.088H334.185C339.821 248.088 344.389 243.519 344.389 237.883V159.45C344.389 153.814 339.821 149.245 334.185 149.245Z" fill="white"/>
<path d="M309.252 131.356H403.806C410.595 131.356 416.099 125.852 416.099 119.063V24.5088C416.099 17.7197 410.595 12.2161 403.806 12.2161L309.252 12.2161C302.463 12.2161 296.959 17.7197 296.959 24.5088V119.063C296.959 125.852 302.463 131.356 309.252 131.356Z" fill="#3399CC"/>
<path opacity="0.2" d="M396.985 31.1354H284.137C276.033 31.1354 269.464 37.7048 269.464 45.8086V158.656C269.464 166.76 276.033 173.329 284.137 173.329H396.985C405.088 173.329 411.658 166.76 411.658 158.656V45.8086C411.658 37.7048 405.088 31.1354 396.985 31.1354Z" fill="black"/>
<path opacity="0.5" d="M309.252 131.356H403.806C410.595 131.356 416.099 125.852 416.099 119.063V24.5088C416.099 17.7197 410.595 12.2161 403.806 12.2161L309.252 12.2161C302.463 12.2161 296.959 17.7197 296.959 24.5088V119.063C296.959 125.852 302.463 131.356 309.252 131.356Z" fill="white"/>
<path d="M356.487 34.8663L320.041 49.1776C320.041 49.1776 324.649 99.2949 356.529 108.692C388.423 99.2949 393.031 49.1776 393.031 49.1776L356.487 34.8663ZM355.568 83.3966C355.331 83.7083 355.026 83.9619 354.677 84.138C354.327 84.3141 353.941 84.4081 353.55 84.4128C353.154 84.4064 352.765 84.3073 352.415 84.1236C352.064 83.9399 351.762 83.6766 351.531 83.3548L338.737 65.7163C338.543 65.4485 338.403 65.1449 338.325 64.823C338.248 64.501 338.235 64.167 338.286 63.8399C338.338 63.5129 338.454 63.1992 338.627 62.9168C338.799 62.6344 339.026 62.3889 339.294 62.1942C339.562 61.9995 339.866 61.8594 340.188 61.782C340.509 61.7047 340.844 61.6914 341.171 61.7431C341.498 61.7949 341.811 61.9105 342.094 62.0834C342.376 62.2563 342.622 62.4832 342.816 62.751L353.619 77.6192L371.272 54.3146C371.675 53.7842 372.272 53.4351 372.932 53.3438C373.592 53.2525 374.262 53.4264 374.794 53.8274C375.316 54.2739 375.654 54.8976 375.744 55.5786C375.834 56.2596 375.669 56.9498 375.281 57.5166L355.568 83.3966Z" fill="white"/>
<path opacity="0.2" d="M314.277 131.356H408.832C415.621 131.356 421.125 125.852 421.125 119.063V24.5088C421.125 17.7197 415.621 12.2161 408.832 12.2161L314.277 12.2161C307.488 12.2161 301.985 17.7197 301.985 24.5088V119.063C301.985 125.852 307.488 131.356 314.277 131.356Z" fill="white"/>
<path d="M524.77 322.373H406.089V402.463H524.77V322.373Z" fill="#3399CC"/>
<path opacity="0.7" d="M524.77 322.373H406.089V402.463H524.77V322.373Z" fill="white"/>
<path d="M522.264 328.54H408.289V399.79H522.264V328.54Z" fill="#263238"/>
<path d="M507.215 339.58H413.51V341.668H507.215V339.58Z" fill="#E0E0E0"/>
<path d="M493.28 345.496H413.51V347.584H493.28V345.496Z" fill="#E0E0E0"/>
<path d="M507.215 351.413H413.51V353.501H507.215V351.413Z" fill="#E0E0E0"/>
<path d="M493.28 357.329H413.51V359.418H493.28V357.329Z" fill="#E0E0E0"/>
<path d="M423.63 363.246H413.51V365.334H423.63V363.246Z" fill="#E0E0E0"/>
<path d="M465.423 369.163H413.51V371.251H465.423V369.163Z" fill="#E0E0E0"/>
<path d="M493.28 375.079H413.51V377.167H493.28V375.079Z" fill="#E0E0E0"/>
<path d="M423.63 380.996H413.51V383.084H423.63V380.996Z" fill="#E0E0E0"/>
<path d="M423.63 386.913H413.51V389.001H423.63V386.913Z" fill="#E0E0E0"/>
<path d="M182.538 155.746H63.8578V235.837H182.538V155.746Z" fill="#3399CC"/>
<path opacity="0.7" d="M182.538 155.746H63.8578V235.837H182.538V155.746Z" fill="white"/>
<path d="M180.046 161.914H66.0714V233.164H180.046V161.914Z" fill="#263238"/>
<path d="M164.997 172.953H71.2919V175.042H164.997V172.953Z" fill="#E0E0E0"/>
<path d="M151.062 178.87H71.2919V180.958H151.062V178.87Z" fill="#E0E0E0"/>
<path d="M164.997 184.787H71.2919V186.875H164.997V184.787Z" fill="#E0E0E0"/>
<path d="M151.062 190.703H71.2919V192.791H151.062V190.703Z" fill="#E0E0E0"/>
<path d="M81.4128 196.62H71.2919V198.708H81.4128V196.62Z" fill="#E0E0E0"/>
<path d="M123.205 202.537H71.2919V204.625H123.205V202.537Z" fill="#E0E0E0"/>
<path d="M151.062 208.453H71.2919V210.541H151.062V208.453Z" fill="#E0E0E0"/>
<path d="M81.4128 214.37H71.2919V216.458H81.4128V214.37Z" fill="#E0E0E0"/>
<path d="M81.4128 220.286H71.2919V222.375H81.4128V220.286Z" fill="#E0E0E0"/>
</g>
<defs>
<clipPath id="clip0">
<rect width="540" height="540" fill="white"/>
</clipPath>
</defs>
</svg>
